<svg id="Capa_1" data-name="Capa 1" xmlns="http://www.w3.org/2000/svg" viewBox="0 0 680.62 1003.09"><defs><style>.cls-1{fill:#fff;}</style></defs><path class="cls-1" d="M816.27,286.46l-37.73,11.69c-.09-1.78-.24-3.18-.23-4.58.27-23.07.63-46.13.78-69.2,0-2.87,1.22-3.81,3.61-4.58,9.1-2.94,18.12-6.15,27.25-9,2.88-.9,4.7-2.33,5.23-5.3l-.14.15a34.75,34.75,0,0,1,4.9,1.76c7.45,4,14.83,8.19,23,12.72,0-2.5,0-4.09,0-5.68,0-20.09-.15-40.18-.07-60.27a125.21,125.21,0,0,1,1-14.21c.49-4.12-.67-6.46-4.89-8-8-2.92-15.7-6.56-23.79-10,.48-1.29.88-2.34,1.4-3.71l28.29,12c0-15.35,0-29.58,0-43.8,0-7,.32-14.09.21-21.13,0-1.48-.92-3.64-2.08-4.28-8.8-4.8-17.76-9.29-27.4-14.26-.11,2.09-.25,3.62-.26,5.16,0,20.69-.12,41.38.1,62.07,0,3.85-1.26,5.46-4.79,6.59-9.11,2.94-18.1,6.27-27.14,9.43-1.37.48-2.76.88-4.74,1.51,0-5.29,0-10.06,0-14.82.1-18.29.28-36.58.25-54.87,0-3.37,1.23-5.14,4.27-6.42C793,51.31,802.52,47,812.18,42.91A6.5,6.5,0,0,1,817,43c29.34,15,58.59,30.1,87.94,45.05,3,1.51,4.07,3.2,4,6.52-.18,13.79.1,27.59-.18,41.38-.09,4.23,1,6.77,5.23,7.81a52.94,52.94,0,0,1,6.46,2.57c0-8.86.34-17.18-.12-25.46-.29-5.2,1.17-7.27,6.47-8.78,22.43-6.43,44.65-13.6,67-20.41a41.16,41.16,0,0,1,9.66-1.92,17.68,17.68,0,0,1,8.22,1.29c9.16,4.4,17.79,10.06,27.21,13.69,12.84,4.93,17.53,13.07,16.91,26.84-.94,21.08.31,42.26,0,63.39a100.88,100.88,0,0,1-3.38,24.26c-2.54,9.51-9.52,15.92-18.76,19.2-8.88,3.14-17.94,5.79-27,8.3-3.38.93-4.44,2.29-4.15,5.85.7,8.77.89,17.57,1.32,27l59.69-13.15v-5.79q-.08-93.54-.24-187.1c0-3.91,1-5.71,4.83-7,13-4.54,25.84-9.5,38.67-14.48,1.43-.55,2.42-2.24,4.44-4.21l44,27.13c.09-2.24.21-3.67.21-5.11,0-11.09.09-22.19,0-33.28,0-2.55.78-3.73,3.21-4.44,10.19-3,20.32-6.21,30.54-9.08a7.26,7.26,0,0,1,5.24.93c12.35,7.92,24.54,16.11,36.9,24,2.47,1.59,3.26,3.34,3.25,6.19q-.32,81.63-.45,163.27c0,10,0,20.09-.13,30.13a6,6,0,0,0,3.14,5.84c5.82,3.68,11.42,7.72,17.23,11.42a6.16,6.16,0,0,1,3.19,5.85q-.11,14.61.22,29.23c.06,2.68-.63,3.9-3.47,4.54-13.28,3-26.43,6.64-39.77,9.29-6.58,1.3-11.1,4.68-15.49,10.55,3.72-1.67,6.53-3.35,9.57-4.18,2.37-.65,5.44-1.1,7.5-.15,15.75,7.31,31.35,14.92,46.9,22.64a9.34,9.34,0,0,1,3.93,4.47c3.32,7.69,6.21,15.57,9.53,23.26,1.22,2.82.65,4.5-1.47,6.59-12.59,12.42-25,25-37.55,37.5a50.82,50.82,0,0,1-4.8,3.62c2.59,1.17,3.85,1.8,5.15,2.31,14.63,5.75,29.23,11.57,43.91,17.15,3.29,1.25,4.91,2.67,5,6.56.31,8.67,1.23,17.34,2.18,26,.31,2.91-.34,4.55-2.94,6.15-12.87,8-25.59,16.15-38.36,24.26-1.25.8-2.45,1.66-3.33,2.26.53,6.76,1.21,13.14,1.47,19.54.12,2.77,1.18,3.81,3.73,4.56,11.63,3.43,23.15,7.2,34.78,10.59,3.39,1,4.85,2.11,4.21,6.1-1.35,8.42-1.85,17-3.07,25.42-.19,1.37-2.05,3.09-3.5,3.59q-18.45,6.39-37.06,12.29c-3,.95-4.33,2.2-4.31,5.58,0,7.94-.27,15.89-.73,23.82-.18,3,.61,4.8,3.38,6.41,13.72,8,27.24,16.32,41,24.33,2.35,1.37,3,2.65,2.59,5.3-1.45,9.32-2.6,18.69-3.94,28.67l-50.09-3.7c-1.56,8.6-3.18,16.94-4.45,25.33-.18,1.25,1.08,3,2.1,4.1,10.52,11.5,21.18,22.88,31.65,34.43,1.13,1.24,2.1,3.5,1.79,5-1.92,9.51-4.23,18.95-6.52,28.87l-47.73-3.18c-2,5.54-2.82,10.31.33,15.92,8.08,14.34,15.38,29.12,23.08,43.68,1.65,3.13,1.66,5.46-1.08,8.27-6.27,6.44-12,13.44-18.19,19.92a10.85,10.85,0,0,1-6.45,3.08c-10.59.75-21.21,1.05-32.37,1.54,2.25,10.12,4.4,19.86,6.57,29.59.65,2.92,1.16,5.89,2.06,8.74,2.47,7.85,3.52,15.38-3.14,22a4.51,4.51,0,0,0-.92,3.29c.83,7.42-2.78,12.69-8.18,17-9.16,7.32-20.12,10.41-31.32,12.69-4.84,1-9.76,1.57-14.66,2.12a7.3,7.3,0,0,0-6.32,4.07c-3.69,6.68-7.88,13.09-11.7,19.7a7.25,7.25,0,0,1-6.82,4c-14.08.27-28.16.84-42.25,1a8.68,8.68,0,0,1-5.33-2.33c-2.59-2.33-4.75-5.16-7.85-8.64-1.15,10.35-2.17,19.51-3.19,28.67q-.1.9-.12,1.8c0,4-1.16,6.22-6,6.87-22.53,3-44.69,8.66-67.56,9.23-2.75.07-5.84,1-6.61-3.24-.08-.48-2-1-3-.9-16.88,2.57-33.73,5.25-50.6,7.85a14.73,14.73,0,0,1-4.73,0c-6.76-1.19-13.48-2.53-20.38-3.85-1.11-8.39-2.19-16.51-3.36-25.23-7.81.84-15.34,1.73-22.88,2.44-9.2.86-18.42,2.06-27.63,2.13-4.12,0-8.46-1.86-12.33-3.66-6.81-3.19-11.72-7.62-10.92-16.49.62-7-.43-14.07-.49-21.11,0-3.07-.92-4.14-4.16-4-13.18.5-26.37.73-39.55,1a4.43,4.43,0,0,1-2.85-.65c-6.93-6.57-13.92-13.1-20.56-20-2.73-2.8-3-6.26-1.49-10.34,4.65-12.93,8.75-26.06,13.25-39.69-8.13-.59-15.83-1.17-23.54-1.7-5.08-.35-10.18-.54-15.25-1-4.27-.38-8.05.6-12.1,2.13-24.8,9.34-49.81,9.3-74.65.18a34,34,0,0,1-11.21-7.24c-6.51-6.2-6.39-14.1.41-20,3.66-3.15,8.22-5.41,12.66-7.45,2.62-1.21,3.91-2.21,3.92-5.39.05-37.63.29-75.26.4-112.89a17.32,17.32,0,0,0-1.17-5.64c-3.34-9.45-6.71-18.9-10.27-28.27-.94-2.48-1.09-4.33,1.53-5.57,9.47-4.51,11.38-12.18,10.76-22.06-.76-12.09-.1-24.27.17-36.41.06-3-.92-4.31-3.73-5-4.65-1.09-9.22-2.47-13.35-3.6,0-10.76-.1-21.07.14-31.38,0-1.18,1.7-2.75,3-3.41,13.12-6.79,22.33-17.92,32-28.53a12.64,12.64,0,0,0,1-1.77c-5.78.57-11,1.27-16.31,1.52-1.9.09-3.84-.9-5.76-1.4,1.27-1.33,2.3-3.11,3.85-3.93q20.45-10.78,41.1-21.22c2.64-1.34,3.55-2.94,3.54-5.9,0-15.29.36-30.58.26-45.87,0-3.62,1.14-4.9,4.57-5.45,8.56-1.36,17.07-3.09,26.26-4.79V517.2l1.24.06c.07-1.54.21-3.07.21-4.61,0-11.54.05-23.09,0-34.63,0-2.16.26-3.7,2.83-4.18,9.69-1.78,19.34-3.71,29.61-5.71v31.66l1.17,0V468.36l34-6.86v19.95l1.61,0c0-5,.27-10-.09-15-.3-4.2,1.44-5.66,5.36-6.32,9.45-1.57,18.83-3.56,28.23-5.35a23.8,23.8,0,0,1,2.94-.17q.21,3.84.37,7c9.37-1.25,18.63-2.38,27.84-3.85,1.12-.18,2.76-2.23,2.78-3.43.22-10.78.13-21.57.13-32.46-1.77-.67-3.16-1.1-4.48-1.69-3.35-1.49-5.5-3.8-6-7.71-1.2-9.76-2.59-19.5-4-29.23-.65-4.41-1.57-8.78-2.44-13.57l26.91-6.8c2.35,4.56,5.12,9,7,13.82,1.94,5,5.23,5.36,10.11,4.24l-10-20.88,14.5-3.69c.73,1.45,1.48,2.85,2.14,4.29,10.66,23.12,21.35,46.21,31.88,69.38,1.2,2.64,2.63,3.81,5.57,4.12,7.89.82,15.73,2.11,23.61,3,1.4.17,2.89-.48,4.34-.75-.05-.56-.09-1.12-.14-1.67-7.79-1-15.6-1.77-23.34-3-1.84-.3-4.26-1.73-5-3.31-10.68-22.6-21.11-45.31-31.6-68-.24-.53-.41-1.1-.59-1.6,2.09-1.93,3.38-1.92,4.74.87,3.87,7.91,4,7.94,12.68,6.71q41.14-5.83,82.25-11.88a6.9,6.9,0,0,0,4.34-3.07c3.53-6.26,6.65-12.74,10.05-19.07.65-1.22,1.74-2.79,2.89-3.05,9.88-2.26,19.82-4.25,30.45-6.46-22.08,47.07-43.8,93.4-65.75,140.21l7.73,2.35c1.28-2.6,2.58-5.07,3.75-7.61q30.35-65.62,60.58-131.3c1.32-2.88,3-4.47,6.08-5.05,5-.92,9.86-2.15,15.76-3.47-21.77,51.3-43.19,101.76-64.82,152.75l6.13,1.77c3.87-8.83,7.68-17.4,11.41-26q20.14-46.56,40.19-93.18c1.25-2.89,2.91-4.09,6-4.21,5.19-.21,10.37-.79,16.76-1.31-5-10.31-9.72-19.91-14.6-29.91l107.06-24.9c-.54,1.34-.84,2.1-1.3,3.26q19.38,7.15,38.72,14.26a5.66,5.66,0,0,0,3,.34c13.63-3.15,27.24-6.39,42.1-9.91-3.71-2.17-6.35-3.73-9-5.27-9.73-5.62-19.39-11.36-29.24-16.74a11.12,11.12,0,0,0-7.08-1q-185.12,40.34-370.19,80.9c-1.29.28-2.6.44-4.6.77V350c0-4.8.49-9.66-.11-14.38-1-8,.83-13.54,9.71-15.09,1.07-.19,2.45-2.46,2.52-3.83.74-14,.67-14-12.14-19.82l-14.92-6.72v77.6l-37.38,10c-.11-1.74-.24-2.92-.24-4.09,0-22.64.05-45.28-.08-67.92,0-3,.8-4.47,3.84-5.37,9.89-2.92,19.66-6.28,29.54-9.27,2.6-.79,4.27-2,4.53-4.76L843,297.67c0-23.95,0-47.14-.05-70.33,0-1.05-.49-2.62-1.26-3.07-8.47-4.92-17-9.66-26.1-14.74-.12,1.95-.25,3.11-.25,4.26.09,15.12.15,30.24.32,45.36C815.75,268.25,816.05,277.36,816.27,286.46ZM735,553.16c-5.58.52-11.38.91-17.11,1.74-1.08.16-2.58,2-2.74,3.18-1.32,9.63-2.8,19.27-3.42,29-2.09,32.44.12,64.7,5.39,96.74,4.92,29.83,12.55,58.89,27.19,85.61,33.7,61.53,83.55,100.36,154.84,107.36,38.66,3.8,74.65-5.37,107.22-27,6.1-4,6.31-5.54,2.3-11.36-9.85,4.57-19.35,9.79-29.4,13.5-33.66,12.4-67.86,11.5-102.08,2.39-20.08-5.34-39.1-13.17-56.14-25.41-3.61-2.6-4.55-4.85-2.85-9.19,5.18-13.23,9.85-26.66,14.71-40,.59-1.64,1.06-3.32,1.69-5.31L828.82,773c-5.31,17.28-10.52,34.22-15.79,51.38a53.14,53.14,0,0,1-22.65-15.69c-2.19-2.49-2.47-4.45-.79-7.48,6.51-11.78,12.69-23.74,19.16-35.95l-4.64-2.45-19.82,35c-12.73-18-23.19-36.41-29.59-56.92-1.25-4-2.94-7.41-7.13-7.62-.83-3.07-1.71-5.58-2.17-8.17-.51-2.92-.67-5.91-.95-8.87-.21-2.18,0-4.48-.61-6.53-12.64-41.29-15.07-83.19-7.93-125.74.51-3,1.76-4,4.56-4.21,8.2-.71,16.38-1.74,24.59-2.41,20.31-1.63,40.63-3.06,60.92-4.79,2.66-.23,5.21-1.76,7.81-2.69a8.62,8.62,0,0,0-4.35-.76c-28.74,1.42-57.48,2.81-86.21,4.35-3.71.2-5.69-1-6.15-4.73C736.46,563.78,735.78,558.91,735,553.16ZM967,711.33c-3.8,1.09-7.16,2.62-10.62,2.89-3,.24-4.27,1.38-5.56,4-14.65,29.25-37.86,48.21-69.5,56.45-7.58,2-15.53,2.48-23.58,3.71-.34,10.23,1.66,20,9.66,27.21A83.32,83.32,0,0,0,883,816.7c31.91,17.53,65.85,21.76,101.36,14.58,6.94-1.4,13.8-3.22,20.89-4.9C992.29,787.39,979.59,749.25,967,711.33Zm136.22-212.28c.31-3.11.87-5.49.74-7.83-.8-14.19-1-28.47-2.81-42.53-4.2-32-12.21-63.15-22.93-93.6-.83-2.38-1.9-3.39-4.51-3.06-4,.5-8.11.39-12.07,1.11a6.88,6.88,0,0,0-4.56,3.18c-14.15,32.2-28.08,64.5-42.13,96.74-1,2.21-.62,3.64.83,5.6,4.77,6.48,9.13,13.26,13.82,19.81a6.63,6.63,0,0,0,3.52,2.26c10.11,2.76,20.25,5.38,30.39,8C1076.48,492.14,1089.5,495.5,1103.19,499.05Zm-30.72,76.86c-8.51,0-16.71-.08-24.9,0-11.44.15-11.34.23-13,11.6-3.29,22.37-9.09,43.93-20.65,63.67-.95,1.63-.72,4.61.05,6.53q23.34,57.87,47,115.62c.63,1.57,1.43,3.07,2.46,5.27.86-2,1.44-3.11,1.9-4.33a105.9,105.9,0,0,0,7.37-38.93C1072.22,682.16,1072.47,628.94,1072.47,575.91ZM1229.63,248.3a25.59,25.59,0,0,0,.35-2.74q.4-95.1.65-190.19c0-1.63-1.52-3.81-3-4.8-10.27-7-20.7-13.76-31.09-20.57-1.09-.72-2.24-1.32-4-2.35V239.42c4.59-1.39,8.81-2.95,13.17-3.88a9,9,0,0,1,6,1C1217.68,240.12,1223.4,244.15,1229.63,248.3ZM641.69,557.18c.06.35.12.71.19,1.07,14.44-1.4,28.88-2.76,43.32-4.19,31.6-3.14,63.19-6.23,94.77-9.53,7.72-.81,15.34-2.41,23-3.51s15.6-2.35,23.44-3c4.12-.32,8.36,1.07,12.5.81,9.11-.56,18.19-1.67,27.28-2.58q70.18-7,140.36-14c35.48-3.49,71-6.79,106.45-10.22,4.27-.41,8.51-1.1,13.84-1.8-2-.74-2.86-1.18-3.8-1.42q-101.88-26.24-203.79-52.37c-5-1.28-10.35-2.86-15.33-2.33-20.08,2.12-40.12,4.75-60.09,7.75-10.78,1.63-21.58,2-32,7.52-38.38,20.52-77.33,40-116,59.83Q668.74,543.13,641.69,557.18Zm242-249a26.26,26.26,0,0,0,3.44-.42c10-2.54,20-5.25,30-7.62,3-.7,3.76-2,3.75-4.9q-.24-70.57-.27-141.15c0-2.48-.76-3.7-3.07-4.65-10.25-4.18-20.41-8.57-30.62-12.86-1-.42-2.11-.68-3.23-1ZM1016.08,98c0,8.84,0,16.87,0,24.91q-.06,34.59-.17,69.17c0,9.71-4.42,17-13,21.44-6.38,3.26-13,6-19.57,8.91-4.17,1.84-8.38,3.57-13.36,5.69,10.08,5.44,19.24,10.48,28.51,15.29a7.06,7.06,0,0,0,4.68.3c8.08-2.2,16.19-4.32,24.1-7C1044.56,230.78,1052,220,1052,201.5c0-20.66-.07-41.33-.2-62,0-6.44-.11-12.89-.7-19.29-.19-2.1-1.55-5-3.25-5.91C1037.62,108.73,1027.18,103.62,1016.08,98Zm42.77,689.37h1.51c-.08-1.73.31-3.65-.31-5.16q-32-78.55-64.2-157a7.44,7.44,0,0,1,.25-7.11,113.22,113.22,0,0,0,12.22-35c1.16-6.73,2.13-13.5,3.21-20.39,22-1.21,43.73-2.54,65.42-3.48,4.4-.19,6.12-2.4,7.85-6.14-5.73.3-11,.59-16.17.85-28.89,1.39-57.78,2.74-86.66,4.22a7.93,7.93,0,0,1-7.81-4.13c-4.4-7.18-7-14.78-5.32-23.73-3.47.3-6.73.43-9.93.95a3.29,3.29,0,0,0-1.91,2.31,33.89,33.89,0,0,0,0,4.93c-.5,27.3-2.68,54.06-24.5,74.57a24.29,24.29,0,0,1,2.55,3.11c1.95,3.36,4.5,4,8.19,2.81,4-1.27,8.24-1.57,12.24-2.78s5.7,0,7.29,3.85q35.28,84.28,70.87,168.43c3.4,8.07,6.82,16.13,10.4,24.6,3.13-3.06,4.54-5.37,2.72-9.67-25.36-59.79-50.36-119.74-75.85-179.48-3.27-7.66-4.68-14.37-.47-21.87,1.51-2.7,2.19-5.88,3.1-8.89,2.92-9.57,6.51-19,6.23-29.28,0-.94,2.23-2.79,3.37-2.75a86.79,86.79,0,0,1,13.35,1.54c5.65,1.11,6.71,2.54,5.06,8.11-4.38,14.76-9.06,29.44-13.84,44.07a11.1,11.1,0,0,0,.29,8.56q25.82,59.52,51.42,119.14Q1049.15,764.91,1058.85,787.34ZM894.92,371.69c8.54,18.47,16.7,36.28,25.1,54,.63,1.32,3,2.32,4.63,2.58,6.21.95,12.52,1.26,18.71,2.35,3.41.6,5-.32,6.57-3.36,10.78-21.21,21.77-42.32,32.68-63.46.71-1.38,1.31-2.81,2.36-5.08ZM919,703.91a62.57,62.57,0,0,1-7.32.51c-3-.17-4.36.87-5.46,3.82A59.57,59.57,0,0,1,900,720.11c-9.57,14.44-21.14,27.18-33.62,39.12-1.12,1.07-2.45,1.93-3.67,2.89a5.91,5.91,0,0,0,3.84,1,67.11,67.11,0,0,0,8-.92c29.15-6.46,53.33-19.56,65-49.16,1-2.58,2.25-2.73,4.16-1.08a8.46,8.46,0,0,1-.13,1.48c-.35,1.14-.74,2.27-1.16,3.39a64,64,0,0,1-18.22,25.81c-18.28,16-39.52,24.48-63.94,24.5-1.34,0-2.69-1.17-4-1.8.67-1.36,1.07-3,2.07-4,9.51-10.16,19.43-20,28.59-30.44,5.28-6,9.44-13.08,14-19.78,1.08-1.61,1.53-3.64,2.38-5.72-3.89-.6-6.07.23-7.34,3.55-1.43,3.77-3.34,7.36-5.07,11-4.75,10-10.27,19-22.69,20.82-2.65.38-4.82,2-4.55,5.64.44,5.93-2.53,9.79-8,12-3.81,1.53-7.4,3.59-11.08,5.44-1.2.61-2.29,1.61-3.54,1.87s-3,.29-4-.4c-.68-.5-.91-2.65-.4-3.52,3-5.16,5.77-10.57,9.62-15,2.42-2.81,4.17-5.07,3.84-8.91-.44-5.15,1.84-9.41,5.82-12.52a56.09,56.09,0,0,1,7.71-4.5c6.35-3.47,7.87-7.4,5.48-14.42-4-1.18-6-.21-6.41,4.42C862,718,859,721,851.85,722.61a8.85,8.85,0,0,0-7,6.26c-2,6-3.73,12-5.85,17.91-2.34,6.51-6.28,12.31-13.55,12.89-5.27.43-10.73-1.52-16.09-2.5-1.82-.33-3.6-.92-5.39-1.39-.06,1.41.15,1.79.48,2a101.74,101.74,0,0,0,59,15.49c28-1.22,50.64-14.18,69.08-34.8a87.88,87.88,0,0,0,18.95-33.32c1.46-4.81.64-5.7-4.41-4.89-3.25.51-6.48,1.23-9.76,1.51-2.5.22-3.26,1.35-3.38,3.71-.23,4.48-.68,8.95-1.15,13.42-.24,2.27-1.13,3.81-3.63,2.23.5-6.1,1-12.1,1.5-18.18-7.88.23-7.82.24-8.65,7-.42,3.42-1.19,6.78-1.65,10.19-.37,2.7-1.57,3.32-3.93,1.92C917.29,716.18,918.11,710.33,919,703.91Zm231,214.5c0-2.23-.15-4.6,0-6.95.21-2.74-.88-4-3.55-4.61-21.07-5.15-42.22-6.82-63.62-2.22-3.66.78-7.29,1.82-11,2.24a48.75,48.75,0,0,0-25.58,11c-7.73,6.3-7.93,14,.22,19.82,6.62,4.7,13.92,9.26,21.61,11.47a140.73,140.73,0,0,0,85.76-1.92c6.57-2.24,12.66-6.68,18.12-11.14,4.53-3.71,4.65-9.07,1.79-13.44-3.11-4.75-7.6-7.83-13.68-10.61.44,4.89.12,9.17,1.36,12.94,1.47,4.43,1.76,6.61-2.47,8.76a48.31,48.31,0,0,1-13,4.61,212.36,212.36,0,0,1-68,.65,55.45,55.45,0,0,1-15.76-4.82c-6.45-3.08-6.27-8.09,0-11.59a32,32,0,0,1,8.34-3.2c15.29-3.48,30.85-4.35,46.45-3.66C1127.92,916.19,1138.74,917.46,1150,918.41Zm28.19-524.6a20.56,20.56,0,0,0,2.06,1.29c15.47,6.78,31,13.46,46.38,20.39,2.71,1.22,4,.19,5.72-1.5q18.33-18.51,36.75-36.92c.67-.68,1.24-1.47,2.08-2.49-14-6.7-27.69-13-41.1-19.86-4.86-2.49-7.78-2.18-11.81,1.75C1205.33,369.09,1191.84,381.18,1178.2,393.81ZM805.1,678.93c11.78,1.83,19.7-.83,20-14.29.1-4.94,2.33-10,7.23-10.81,7.7-1.27,8.89-6.57,9.93-12.38a4.51,4.51,0,0,0-1.82-3.53c-5.9-4-12.08-7.56-17.94-11.59A30.55,30.55,0,0,1,810,608.76c-.32-1.2-.56-2.43-.88-3.83-31,20.16-45.81,57.26-44,81.29,5.07-.19,7.93-2.42,7.48-7.92a20,20,0,0,1,.43-4.92c1.44-8.47,3-16.93,4.54-25.93L781.1,649c-1.86,11.55-3.66,22.68-5.45,33.76,4,.82,5.34-.15,5.42-3.18a73.58,73.58,0,0,1,1-10.28c1.37-8,3-16,4.56-24.5l3.39,1.53c-1.94,12-3.8,23.63-5.67,35.28,4.56.75,5.88-.71,6.4-4.29,1.38-9.45,3.22-18.85,4.92-28.26.06-.35.54-.63,1-1.13l2.46,1.18c-1.76,10.7-3.44,20.92-5.09,31,5.58,1.15,7.62-.19,8.34-5.27,1.26-8.76,3.66-17.36,5.54-25.86,4.31.18,4,1.92,3.39,4.29C809.09,661.78,807.14,670.33,805.1,678.93ZM850.34,587c-10.68,4.66-11.35,8.32-3,16,8.66,7.87,18.76,13.24,29.81,17,8.33,2.84,16.6,5.86,24.84,8.94,4.31,1.62,8.52,3.53,12.81,5.33,1.45-5.5-3.75-10.47-.49-15.85a84.58,84.58,0,0,1,4.19,14.51c.82,3.81.79,3.89,5,4.59.31-5.18-3.61-10.08-1.17-15.48,2.07,4.6,3.14,9.36,4.4,14.06.44,1.65.92,3.87,2.13,4.62,5.86,3.62,12,6.83,18.63,10.52-2.71-6.67-5.47-12.64-7.58-18.83-3.45-10.14-10.21-17.33-18.84-23.25-13.63-9.37-28.87-15-44.6-19.39-2.82-.79-4-1.83-3.84-4.81a89.11,89.11,0,0,0,0-11.67,5.7,5.7,0,0,0-2.12-4c-6.06-3.74-12.79-5.37-20.2-5.67Zm142.31,428.8c14.27-2.38,28.27-4.66,42.23-7.17,1.06-.19,2.43-2,2.61-3.16,1-7,1-14.13,2.71-20.89,2.53-10.12-.8-17.48-8.09-24.15-2.44-2.23-4.44-3.36-7.77-2.9q-14,2-28.07,3.34c-3.06.3-4,1.34-4,4.41.14,15.57.06,31.14.08,46.72C992.36,1013.16,992.53,1014.33,992.65,1015.8Zm169.27-234.33c0,5.42-.15,10,.08,14.64a10.43,10.43,0,0,0,1.72,4.94c6.29,9.65,12.63,19.27,19.21,28.72a7.12,7.12,0,0,0,5,2.62c9.42.22,18.86.06,28.29,0h13a7.53,7.53,0,0,0-.28-1.83c-8.13-15.65-16.23-31.33-24.54-46.88-.63-1.18-2.82-2.12-4.3-2.14C1187.64,781.4,1175.23,781.47,1161.92,781.47ZM960,1013.65c-5.16-15.08-10.07-29.48-15.08-43.83a3,3,0,0,0-2.19-1.61c-8.2-.12-16.4-.08-24.8-.08-3.45,17.92-6.82,35.43-10.33,53.69ZM954,677c-1.09-5-2.22-8.79-2.65-12.63-.51-4.46-2.83-7.19-6.45-9.55-20.46-13.36-42.87-22.49-65.86-30.23-12.63-4.25-24.58-9.4-34.42-18.62-4.32-4.05-8-8.5-6.92-15.6L825.91,595c2,5.21-.91,8.15-3.64,10.86.65,2.06,1.21,3.91,1.81,5.74,1.42,4.37,4.3,7.78,8.79,8.28,3.66.41,5.44,2.57,7.54,4.79.75.79,1.46,1.62,2.19,2.44l.48-.31c-1.07-2.93-2.15-5.85-3.27-8.91,6.72-1.59,12.93,2,14.81,7.44,1.3,3.8,2.88,7.51,4.34,11.26h1.47c1.25-5.14,4.12-7.53,9.13-6.29l-.8.93q3.09,3.87,6.16,7.75l1.12-.8c.28-1.4.55-2.81.83-4.21,3.29-.64,6.29-1.23,8,2.29,1.55,3.17,3,6.4,4.55,9.76,4.57-3.11,7.29-2.63,9.35.84,1.43,2.41,8.23,4.18,10.79,2.81,3.82-2.06,7-.24,7.14,4.1,0,1.14.22,2.28.32,3.33l14.66,2.48c.06,1.12.15,2.72.25,4.35,6.25-1,9.51,1.12,11,6.8a5,5,0,0,0,2,2.45,33.47,33.47,0,0,0,4.93,2.67A30.3,30.3,0,0,0,954,677Zm163.74-152.9c10.82,15.61,21.56,30.91,32,46.4a16.37,16.37,0,0,1,2.63,8.61q.24,86.52.12,173v4.49l1.39.15c1.37-4.36,3.71-8.66,3.95-13.08.82-14.94,1-29.92,1.25-44.89q1-60.66,1.68-121.32a12,12,0,0,0-2.42-6.85c-12.42-16.15-25-32.15-37.59-48.17-1-1.24-2.08-2.37-3.52-4-10.39,13.38-20.41,26.29-30.7,39.56,6.61.48,6.64.5,9.71-3.79C1103.4,544.29,1110.49,534.32,1117.77,524.11Zm164.3-50.2c-14.78-4.52-28.33-8.77-42-12.73-1.6-.46-3.81.29-5.45,1.07-9.75,4.59-19.42,9.35-29.1,14.08-4.38,2.13-8.73,4.31-13.62,6.73a14.37,14.37,0,0,0,2,1.23c14.52,5.15,29,10.36,43.61,15.31a7.12,7.12,0,0,0,5.23-.92c8.2-5,16.25-10.17,24.35-15.3ZM1105.42,574.12c-5.43,0-10.07.19-14.69,0-4.3-.23-5.62,1.4-5.59,5.73.22,35.66.21,71.32.29,107,0,1.71.17,3.42.26,5.13C1102.42,654.21,1103.92,614.21,1105.42,574.12Zm37.85-322-36.54-73.82-.73.36v81.88Zm93.5,364.73c0-10,.09-19.12-.13-28.22,0-1-1.66-2.65-2.81-2.93-6.53-1.6-13.13-2.91-19.71-4.26-8-1.65-16-3.25-24.52-5-1,11.74-1.94,22.94-2.91,34.37ZM689,815.66c-9.88.45-19.41.75-28.91,1.38-3.52.23-5.76-.46-7.44-3.94-2.81-5.81-6.24-11.32-9.4-17l-.68.3v49L689,847.18Zm-27.83,72.9c12.84,0,25.46-1.41,37.2-7a34.35,34.35,0,0,0,9.46-6.63c3.92-3.92,3.81-8.56-.3-12.26a34,34,0,0,0-10.43-6.77c-23.78-8.86-47.73-8.89-71.47.13A33.83,33.83,0,0,0,615,863.23c-3.52,3.3-3.58,7.81-.17,11.23a37,37,0,0,0,10.08,7.24C636.3,887.14,648.65,888.46,661.16,888.56Zm580.78-363.24c-.42-5.89-1-10.94-1.06-16,0-3.2-1.14-4.67-4.17-5.72-15.11-5.2-30.14-10.65-45.2-16-1-.37-2.17-.53-3.52-.85v33.67Zm-13.15,148.85-51.46-7.75c-1.07,10.11-2.08,19.58-3.15,29.59l49.92,4.8C1225.7,691.72,1227.2,683.22,1228.79,674.17ZM966.36,287.88l32.1-7.1c0-10.52.09-20.36-.13-30.2,0-1.24-1.46-2.88-2.68-3.58-4.92-2.82-10-5.36-15-8-4.58-2.38-9.17-4.73-14.27-7.36Zm318.45,182.66c-.73-9.31-1.26-17.8-2.21-26.25-.13-1.23-2.09-2.7-3.52-3.29-8.57-3.53-17.22-6.83-25.85-10.22l-20.67-8.14c2.12,11.24,4,21.63,6.11,32a3.8,3.8,0,0,0,2.15,2.43C1255.21,461.55,1269.63,465.92,1284.81,470.54ZM668.9,717.48c-8,2.68-15.34,5.29-22.76,7.51-3,.89-3.89,2.23-3.86,5.33.13,16.92,0,33.85,0,50.77,0,1.27.16,2.54.26,3.91.61-.2,1-.2,1.11-.38q15.4-17.85,30.73-35.78a4.31,4.31,0,0,0,.93-3.18C673.32,736.48,671.17,727.33,668.9,717.48Zm486.9-373c17.3-7.91,35.29-13.52,46-30.39,0-.06-.16-.42-.38-.51-11.88-4.53-23.75-9.1-35.69-13.47a4.67,4.67,0,0,0-3.94.8c-4.63,4.26-9.09,8.71-13.47,13.23a3.79,3.79,0,0,0-.76,3.12C1150.13,326.14,1152.89,335,1155.8,344.48Zm101.14,394.95c-10.75-11.66-20.5-22.36-30.46-32.87-1.15-1.21-3.39-1.74-5.2-1.93-11.3-1.23-22.61-2.29-33.92-3.35-2.55-.24-5.11-.25-9-.42,13,12,25,23,37,34a5.08,5.08,0,0,0,2.76,1.23C1230.63,737.24,1243.12,738.27,1256.94,739.43Zm-23.09-68.21,45.5,3.53,3.47-25.38L1235.51,639C1235,650,1234.41,660.36,1233.85,671.22Zm-23.76-430.81c0,9.85.12,19.22-.07,28.6-.06,3,1.13,4.52,3.62,5.92,12,6.74,23.88,13.67,35.81,20.52,1.12.64,2.32,1.14,3.91,1.92,0-8.56-.12-16.59.06-24.62a6,6,0,0,0-3.13-5.81c-12.25-8.06-24.39-16.28-36.58-24.42C1212.65,241.81,1211.5,241.22,1210.09,240.41Zm-60.63,662.85V854.08h-36.64c4.89,11.52,10.11,22.45,14.13,33.8,2.94,8.33,6.87,14.13,16.55,14C1145.37,901.85,1147.26,902.72,1149.46,903.26ZM879.07,992.74c-1.25-9.92-2.35-19.23-3.72-28.51-.14-1-1.78-2.21-2.93-2.48-6.83-1.56-13.74-2.81-20.6-4.3-2.41-.53-3.47.31-4.19,2.58-2.55,8.11-5.27,16.17-7.91,24.25-1.37,4.18-2.68,8.38-4.24,13.25ZM1118.57,57l-.75.66q17.82,39.63,35.63,79.28l1.7-.26c0-18.4,0-36.79-.12-55.18,0-1.22-1.49-2.8-2.69-3.57-7.45-4.76-15-9.34-22.52-14Zm141.34,686.66c-14-1.15-27.18-2.28-40.42-3.25a3.2,3.2,0,0,0-2.49,1.74c-2.34,7.68-4.48,15.42-6.82,23.65l43.91,3C1256,760.36,1257.88,752.41,1259.91,743.67Zm-201.8,237.92c14.3,0,28.18,0,42.06-.05a3.64,3.64,0,0,0,2.72-1.16c4.39-7,8.64-14.13,12.69-20.82-13.37-1.35-26.25-2.68-39.15-3.88a3.73,3.73,0,0,0-2.91,1.35C1068.28,965.19,1063.2,973.44,1058.11,981.59Zm-359.53-197v-4.41q-.12-94-.33-188a10.57,10.57,0,0,0-2.09-6c-6.31-8-13-15.7-19.33-23.68-2.11-2.66-4.21-2.87-7.45-1.25,6.93,8.5,13.61,17,20.6,25.15a14.93,14.93,0,0,1,3.82,10.47c-.17,60.56-.15,121.12-.25,181.69C693.55,781.83,693.83,784.51,698.58,784.55Zm544.17-228.4,38.9,11.84c1-9.08,1.92-17.49,2.87-26.13l-38.65-12C1244.8,538.87,1243.8,547.28,1242.75,556.15ZM1007,831.79c-.15-.43-.3-.85-.46-1.27-1.18.18-2.37.35-3.56.56-12.64,2.3-25.21,5.35-38,6.77-33.13,3.7-63.57-5-91.73-22.09-10.11-6.16-17-15.08-18.95-27.15-.56-3.45-.6-7-.88-10.48a10.62,10.62,0,0,0-3.21,5.22c-2.78,9.93-.64,24.88,11.31,33.11,15.9,10.95,33.38,18.1,52,22.63,30,7.29,59.66,6.91,88.65-4.83C1003.87,833.59,1005.4,832.62,1007,831.79Zm-199.3-91.33c.23-5.53.78-10.26.52-14.94-.34-6-1.32-12-2-18.07-.14-1.23-.28-2.46-.54-4.66l-3.24,7.06-1.26-.36c-.54-2-1.09-4-1.73-6.31l-5.3-.38c-.89,3.22,2.57,7-1.67,8.67-4.52-2,.82-9.89-6.16-9.85l-2.69,5.84c-3.3-2.17-1-8.58-6.13-7.2-.91,2.43-1.6,4.27-2.28,6.11l-1.23.08c-1.16-4.81-2.33-9.62-9.67-8.75,1.59,5.16,2,11,4.89,15.06C778.38,725.86,791.44,734.2,807.69,740.46Zm160-551.35c5.34-2,10-3,13.73-5.46,2.55-1.66,5.19-5.24,5.37-8.11.79-12.66.8-25.38.91-38.09,0-4.07-2.36-6-6.47-5.29-3.36.57-6.62,1.79-10,2.48-2.93.61-3.66,2.27-3.62,5.09.14,11.06.05,22.13.05,33.19ZM1082.87,890q.75-76.65,1.5-152.83l-1.63-.25c-1.69,5.34-4.71,10.65-4.84,16-1.09,44.34-1.63,88.68-2.33,133,0,1.3.13,2.61.21,4ZM905,139.87c0-15.57,0-30.37,0-45.17a3,3,0,0,0-1-2.33c-6-3.23-12-6.31-18-9.44l-1.61.74c0,15,0,30,.05,44.94,0,1,.42,2.67,1.12,3C891.79,134.4,898.12,137,905,139.87ZM1068.68,932c16.23,7.22,68.85,7,81.45.48a24.61,24.61,0,0,1,0-4c.73-4.31-1.47-5.82-5.35-6.23-6.09-.64-12.14-1.83-18.25-2.22-18.28-1.16-36.53-1.08-54.48,3.19-3.72.89-7.18,2.88-10.76,4.35.08.49.15,1,.23,1.46l6,3.45c-.09-6.56,4.33-8.18,8.81-9,17.37-3.09,34.84-2.17,52.6-.92-.22,1.75-.41,3.18-.51,4-7.61,0-14.79-.23-21.93.06-9.7.4-19.39,1-29,2C1074.76,928.89,1072.17,930.62,1068.68,932ZM849.89,64.37a7.78,7.78,0,0,0-.56,1.67q-.68,31.41-1.26,62.81c0,1.05.42,2.69,1.14,3.05,4,2,8.24,3.7,12.59,5.59a14.83,14.83,0,0,0,.73-2.56c.33-20.35.67-40.69.89-61a4.35,4.35,0,0,0-1.59-3.29C858,68.37,854,66.47,849.89,64.37Zm422.24,306.16c-3.16-8.32-5.71-15.31-8.51-22.2a6.51,6.51,0,0,0-3.14-2.86q-21.17-10.26-42.42-20.32a30,30,0,0,0-3.73-1.16c3.34,7.8,6.34,14.94,9.47,22a5.4,5.4,0,0,0,2.35,2.53C1241.05,355.73,1256,362.84,1272.13,370.53Zm-74.47,202.32c0,.36,0,.72,0,1.08,8.32,1.71,16.83,2.83,24.93,5.27,11.26,3.39,21.83,2.92,32.58-1.86,6-2.69,12.59-4.26,19.45-6.51a8.65,8.65,0,0,0-1.57-1.14q-15.43-4.74-30.88-9.42a4.85,4.85,0,0,0-2.61-.27Q1218.58,566.36,1197.66,572.85ZM873.72,454c0-11.46,0-22.51-.11-33.56a3.51,3.51,0,0,0-2.5-2.32c-5.92-.07-11.85.09-17.76.36-2.5.12-3.39,1.61-3.3,4.24.23,6.58.12,13.18.14,19.77,0,4.73,0,9.46,0,14.54Zm-110,498h40.59c0-5.94.08-11-.07-16.07a4.22,4.22,0,0,0-1.39-3c-6.07-4.29-12.25-8.41-18.62-12.73ZM1160.5,854.1c0,17.56,0,34.33.09,51.1a4.87,4.87,0,0,0,1.89,3c5.76,4.62,12.21,3.5,18.9,2.29-.14-1.15-.17-2-.36-2.88-3-13.28-6.43-26.47-8.82-39.86C1171,860.77,1166.69,857.46,1160.5,854.1Zm1.86-76.58c12.74,0,25,0,37.22,0,2.49,0,4.17-.19,4.63-3.32.4-2.69,1-4.57-2.24-6.15-12.3-6.13-24.44-12.58-36.65-18.89a22,22,0,0,0-3-1ZM867.07,73.2v61.72c3.52-1.18,7-2,10.2-3.56a5.84,5.84,0,0,0,2.88-4.09c.62-14.51,1-29,1.3-43.55,0-1.27-.58-3.17-1.52-3.74C876.15,77.69,872.12,75.81,867.07,73.2ZM1176,858.06c11.3-.49,21.71-.93,32.11-1.41a2.57,2.57,0,0,0,1.61-.66c5.67-6.22,11.3-12.48,17.51-19.36-14.32,0-27.58,0-40.83.06a2.74,2.74,0,0,0-2.06,1.33C1181.6,844.41,1179,850.86,1176,858.06Zm46.85-438.76c.05-.36.11-.72.17-1.08l-45.83-20v31.63ZM811.15,589.88c-3.19-.43-6.54-1.24-9.91-1.3-17.87-.33-16.51-.7-20.76,16-1.77,7-2.35,14.21-.29,20.89,7.35-7,14.22-14.25,21.93-20.51C807,601.05,811.23,597.44,811.15,589.88Zm386.52,26.25c23,14.77,47.15,22.79,74.14,26.1-12.51-7.5-24.14-14.47-35.78-21.43a3.29,3.29,0,0,0-1.27-.42ZM643.76,631.28v45.86c3.8-2.67,6.87-5,10.12-7a6.75,6.75,0,0,0,3.53-6.18c.19-8.22.74-16.43,1-24.66,0-1.07-.66-2.82-1.47-3.16C652.69,634.32,648.32,632.91,643.76,631.28ZM861.11,401.4v0c-3.29,0-6.57-.1-9.85,0-4.36.17-9.9,4-10.88,8-.43,1.76-.19,4.56.94,5.62,1.33,1.23,4.38,2.05,5.93,1.36,8.91-4,17.88-4.09,27.11-1.68,3.35.88,5.43-.76,5.71-4.26.36-4.4-3.58-8.69-8.67-9.05C868,401.2,864.54,401.4,861.11,401.4Zm13.41-18-1,.25c0,3.13.13,6.27,0,9.39-.15,2.91.38,4.69,3.57,6.09,6.58,2.9,8.54,9.64,5.76,16.17a6.92,6.92,0,0,0,0,4.87c3.28,7.86,6.82,15.61,10.29,23.38s3.51,7.87,11.93,6.47a6,6,0,0,0,1.21-.72Q890.4,416.34,874.52,383.35ZM810.39,555.7l-.24,1.32a48.63,48.63,0,0,0,5.66,1.08c9.65.75,18.3-2.92,27-6.4a16.26,16.26,0,0,0,3.17-2.28c-1.11-1-2.06-2.45-3.34-2.84a72.45,72.45,0,0,0-29.22-2.84c-3.5.38-6.9,1.7-10.34,2.59l0,1.77L815.5,554Zm69,29.11c8.88.14,18.6-7.73,18.83-15.19.26-8.51-8.17-14.89-21-15.84-3.16,5.92,2.42,10.15,4.9,12.52,3.57,3.39,2.38,4.84.68,7.53C880.67,577.18,878.09,580.4,879.34,584.81ZM661.93,562.05l-1-1.66c-2.26,1.3-4.91,2.21-6.69,4-5.82,5.82-11.4,11.88-16.86,18a9.66,9.66,0,0,0-2.37,5.45c-.62,10.91-.94,21.83-1.34,32.75-.06,1.58,0,3.17,0,4.87l6,1c.39-12.77.68-25.16,1.25-37.54a10.38,10.38,0,0,1,2.29-5.87C649.27,575.92,655.64,569,661.93,562.05Zm66,298.52-17.52,19.26L746.83,882Zm228.72-150.3c6.63-1.06,10.8-4.65,13.06-10.58,4.36-11.48-2.27-28.23-14.18-35.38.91,5,1.34,10,2.81,14.64,1.13,3.6,1.17,7.8,5.38,10.3,2.9,1.72,1.35,4.66-1,6.24C957.7,699,956,703.81,956.69,710.27Zm166.22,120-9.63,19.09h35.79Zm-297.38-240c6-1.81,12.06-3.53,18-5.5a3.94,3.94,0,0,0,2.34-2.62c.28-3.53.11-7.09.11-10.6-10-.33-22.76,6.94-25.81,14Zm93.92,93.27-18.68-1.11-1.14.85c5.75,5.22,2.3,11.56,2.93,17.7,5.05-.33,9.81-.51,14.53-1.06a3.54,3.54,0,0,0,2.25-2.56C919.58,692.94,919.45,688.47,919.45,683.57ZM772.9,723.37l-.93,1c3,4.6,5.89,9.33,9.16,13.74,1.72,2.32,3.88,5.27,6.35,5.88,5.65,1.4,11.6,1.52,17.43,2.18a6.39,6.39,0,0,1,1.19.4l-2.17,3.92,13.23-1.13.2-1.51C800.76,742.91,785.28,735.94,772.9,723.37Zm381.62,70.23-2,.59c0,15.66,0,31.32.12,47,0,1.1,1.7,2.17,3.28,4.07a41.9,41.9,0,0,0,.68-4.29c.24-13.76.56-27.52.53-41.28C1157.16,797.64,1155.45,795.62,1154.52,793.6ZM818.39,682.75c-3.9.31-7.36.35-10.72,1a4.55,4.55,0,0,0-3,2.8,72.15,72.15,0,0,0-.83,10.71,3,3,0,0,0,1.36,2.34,3.91,3.91,0,0,0,2.75-.65c2.26-1.28,4.29-3.07,6.66-4,6.79-2.73,6.84-2.61,4.48-9.59C818.83,684.61,818.69,683.9,818.39,682.75Zm50.54-286.33V385.53h-16.7v10.89Zm21.16,262.5a75.33,75.33,0,0,0-7.28-3.81c-1-.4-3.18-.18-3.42.37-2.39,5.53-4.56,11.16-6.6,16.83-.24.64.65,1.69,1.59,3.92C877.21,667.33,888.15,668.08,890.09,658.92ZM638.88,686.17c-2.92,1.09-4.23,3.06-4.18,6.4.11,7-.13,14.06-.21,21.09,0,2.89,0,5.78,0,8.67L636,723c1-1.28,2.69-2.55,2.72-3.85C639,708.23,638.88,697.32,638.88,686.17Zm261.83-7.72,18.52,1.11c-.06-8.67-5.6-14-11.73-13ZM864.37,701.4c6,2,8.19-.22,14.16-7.15,5-5.81,5.51-7.2-2.08-10.69-.21-.1-.5,0-.07,0-1.84,2.46-3,5.36-5.07,6.51C866.55,692.67,866,697.16,864.37,701.4ZM778.55,593.89c-8.56,4.69-9.09,27.46-3.28,41.34a21.34,21.34,0,0,0,1.14-7.54c-.2-4.75-1.34-9.54-1-14.23C776,606.86,777.47,600.33,778.55,593.89ZM934.33,698.37l16.12-2.63c-3.92-5.16-10.13-11.23-16.12-10.18ZM688.72,798.64l-20.59,13.15c4.46,0,7.56.06,10.65,0C690.43,811.51,690.43,811.5,688.72,798.64Zm329.31,146L999.6,955.74l.39.83,25.7-3.13ZM846.53,542.12l.06,1.42L873,547.65v-8ZM699,852.36v-26c-9.1,5.52-4.92,13.84-5.24,20.9C693.7,848.6,696.64,850.13,699,852.36ZM923.36,699.51c2.77-1,6.69,1.54,7.18-3.08.41-3.78.09-7.64.09-11.66l-7.27-.69ZM800.67,684.6c-6.93-.05-6.95-.05-7.08,6-.05,2.51,0,5,0,7.8l6,.77C800,694.11,800.31,689.53,800.67,684.6Zm49.9-135.66-.23,1.53,21.95,5.74c.07-1.71-.59-3.64-1.6-3.85C864,551,857.29,550,850.57,548.94ZM760.94,702.83c-6.06,1.23-10.15,5.18-10.32,9l11.29-2.56Q761.48,706.46,760.94,702.83Zm28.36-5c.19-4.27.37-8.07.59-12.93-2.26,1-4.89,1.4-5,2.22-.48,3.3-.2,6.71-.2,10.15ZM763,711.16l-1.57-.47c-.32,3.58-1.31,7.3-.64,10.68.28,1.4,4.13,2.09,7.07,3.43C766,719.56,764.48,715.36,763,711.16Zm17.21-23.73c-3.16-.64-4.47.4-4.47,3.57s-.08,5.77,4.47,5.16ZM929,680.07l1.11-1.27-6.87-6.42C922.67,680.52,922.75,680.62,929,680.07Zm169.39-121.93,7.11-.88v-8.75Zm-28.06,338.35-8.93,7.7C1070.86,903,1071.07,902.83,1070.36,896.49ZM765.2,691.19l.1,1.21,6.34,2.27V688.6Zm82.67-549.41,7.38-2.71L847.87,136Z" transform="translate(-608.36 -22.87)"/><path class="cls-1" d="M815.18,205.48c-3.58.9-7.2,1.66-10.73,2.74-8.27,2.53-16.5,5.23-25.68,8.16v-10.6c0-21.13,0-42.26-.19-63.39,0-3.86,1.21-5.92,5.07-7.16,9.4-3,18.65-6.49,28-9.75,1.22-.43,2.49-.71,3.44-1v81.12A1.74,1.74,0,0,1,815.18,205.48Z" transform="translate(-608.36 -22.87)"/><path class="cls-1" d="M815.52,449.8l-36.4,6.86c-.12-2.06-.29-3.65-.29-5.24,0-21.72,0-43.44-.08-65.17,0-3.35.74-5,4.33-5.86,10.74-2.5,21.37-5.45,32.44-8.32Z" transform="translate(-608.36 -22.87)"/><path class="cls-1" d="M743.3,228.89c0-21.07,0-41.57,0-62.06,0-4.64-.12-9.3.21-13.92.11-1.51,1.14-3.81,2.31-4.25,10.18-3.83,20.48-7.31,31.14-11,.12,1.53.27,2.51.28,3.49.07,24.1.08,48.2.26,72.3,0,3-.72,4.46-3.75,5.4C763.67,222,753.69,225.42,743.3,228.89Z" transform="translate(-608.36 -22.87)"/><path class="cls-1" d="M743.64,232.57l33.49-11.42c.13,1.95.29,3.36.29,4.76,0,22.92-.06,45.84.1,68.75,0,3.32-1.09,4.63-4.17,5.54-9.85,2.93-19.6,6.19-29.71,9.42Z" transform="translate(-608.36 -22.87)"/><path class="cls-1" d="M709.94,240.46c0-25.91,0-51.2.11-76.49a4.75,4.75,0,0,1,2.41-3.61c9.5-3.48,19.11-6.68,29.21-10.14.13,2,.31,3.38.31,4.8,0,23.35-.05,46.71.12,70.06,0,3.47-1.07,4.95-4.33,6C728.66,233.91,719.67,237.14,709.94,240.46Z" transform="translate(-608.36 -22.87)"/><path class="cls-1" d="M743.49,386.32V312.69c11.14-3.75,22.26-7.51,33.74-11.39v76.49Z" transform="translate(-608.36 -22.87)"/><path class="cls-1" d="M777.47,381.37c0,15.18-.07,29.56,0,43.93.06,9.59.43,19.17.43,28.75,0,1.23-1.26,3.33-2.25,3.55-10.51,2.25-21.09,4.2-32.07,6.31V390.83Z" transform="translate(-608.36 -22.87)"/><path class="cls-1" d="M743.26,144.31v-36.8c0-10.48,0-21,.06-31.43,0-1.28.53-3.31,1.41-3.72C755.28,67.5,765.93,62.87,777,58c.1,1.73.22,2.85.22,4,0,22.15-.07,44.3.09,66.45,0,3.29-1.05,4.7-4.09,5.69-8.52,2.77-16.93,5.88-25.39,8.83C746.47,143.41,745.06,143.77,743.26,144.31Z" transform="translate(-608.36 -22.87)"/><path class="cls-1" d="M710.25,243.44l31.29-10.33c.16,1.73.36,3,.36,4.29,0,22.6,0,45.19.1,67.79,0,3.31-1.1,4.65-4.18,5.59-9.12,2.78-18.13,5.9-27.57,9Z" transform="translate(-608.36 -22.87)"/><path class="cls-1" d="M677.36,251.28v-4.91c0-23.21.08-46.43-.08-69.64,0-3.43,1-5,4.28-6,8.78-2.82,17.43-6,26.61-9.26v15.4c0,20.07-.06,40.14.08,60.2,0,2.91-.9,4.2-3.61,5.06C695.7,245,686.83,248.07,677.36,251.28Z" transform="translate(-608.36 -22.87)"/><path class="cls-1" d="M710,395.23V365.64q0-19.53,0-39.07c0-1.95-.22-3.67,2.48-4.45,9.6-2.76,19.11-5.81,29.24-8.93.13,1.77.31,3.17.31,4.57,0,21.71-.07,43.41.06,65.12,0,3.12-.87,4.42-3.95,5.15C728.83,390.2,719.62,392.73,710,395.23Z" transform="translate(-608.36 -22.87)"/><path class="cls-1" d="M677.18,329.76c0-9.52,0-18.45,0-27.37-.06-14.51,0-29-.33-43.54-.07-3.5,1.11-4.9,4.39-5.87,8.85-2.62,17.58-5.66,26.72-8.65v76.08Z" transform="translate(-608.36 -22.87)"/><path class="cls-1" d="M709.83,470.27c0-11.55,0-22.31,0-33.07-.05-10.93,0-21.87-.36-32.79-.12-3.76,1.2-5.18,4.73-6.06,9.09-2.27,18.08-5,27.51-7.61V464.3Z" transform="translate(-608.36 -22.87)"/><path class="cls-1" d="M709.8,155.62c-.11-2.29-.24-3.76-.24-5.22,0-19.46.08-38.92-.08-58.37,0-3.6.89-5.62,4.44-7,9.15-3.63,18.12-7.72,27.81-11.91.11,1.8.28,3.2.28,4.6,0,21-.06,41.91.08,62.87,0,3.19-.87,4.7-4,5.67C728.81,149.07,719.67,152.31,709.8,155.62Z" transform="translate(-608.36 -22.87)"/><path class="cls-1" d="M671.07,489.07c-.59,15.39-1.18,30.71-1.8,46.55a52.61,52.61,0,0,1-6-.83c-13.87-3.63-27.73-7.25-41.53-11.11a7.84,7.84,0,0,1-4.46-3.64c-4.13-8.47-4.53-17.07,1-25.08,1.48-2.13,4.25-4.58,6.58-4.74,14.58-1,29.2-1.38,43.81-1.92A8.32,8.32,0,0,1,671.07,489.07Z" transform="translate(-608.36 -22.87)"/><path class="cls-1" d="M708.17,323.08V328c0,21-.08,42,.09,63,0,3.43-.84,5-4.28,5.84-8.7,2.06-17.31,4.5-26.62,7v-5.49c0-20.08.09-40.17-.08-60.25,0-3.55.85-5.34,4.42-6.39C690.42,329.06,699,326.07,708.17,323.08Z" transform="translate(-608.36 -22.87)"/><path class="cls-1" d="M677.49,407.84l30.68-8.16v16.1c0,17.07,0,34.14.06,51.21,0,2.91-.75,4.16-3.8,4.71-8.81,1.58-17.55,3.57-26.94,5.53Z" transform="translate(-608.36 -22.87)"/><path class="cls-1" d="M677.43,167.19c0-6.93,0-12.89,0-18.85.05-14.53.05-29.07.25-43.6,0-1.49.81-3.8,1.91-4.31,9.17-4.33,18.5-8.33,28.26-12.64.13,1.75.31,3,.31,4.26,0,20.08-.08,40.16.11,60.24,0,3.47-1.14,5-4.29,6-6.66,2.25-13.17,4.92-19.79,7.29A62.43,62.43,0,0,1,677.43,167.19Z" transform="translate(-608.36 -22.87)"/><path class="cls-1" d="M669.25,405.18v54.28c-1.56-.93-2.77-1.61-3.94-2.37-11.72-7.53-23.38-15.16-35.18-22.56A7.55,7.55,0,0,1,626.3,428c-.54-7.37.15-14.42,5-20.41a6,6,0,0,1,3.91-2.3C646.38,405.1,657.59,405.18,669.25,405.18Z" transform="translate(-608.36 -22.87)"/><path class="cls-1" d="M669.75,320.52V370.1c-3.93-4.1-8.52-8.49-12.63-13.29-4-4.63-2.8-10-.4-14.8,3.65-7.35,7.77-14.47,11.69-21.69Z" transform="translate(-608.36 -22.87)"/><path class="cls-1" d="M879.05,530.78c-2.68-4.11.63-5,2.81-6.16,13.64-7.17,27.32-14.24,41-21.35,16.85-8.76,33.67-17.59,50.61-26.2a10.39,10.39,0,0,1,6.65-.79Q1036.2,490.46,1092.2,505c1.25.32,2.21,1.75,3.3,2.67-1.21.81-2.36,2.22-3.64,2.35-26.66,2.53-53.35,4.92-80,7.35-33.23,3-66.46,6-99.67,9.14C901.16,527.6,890.22,529.33,879.05,530.78Zm75.1-12.12L975,516.59a94.64,94.64,0,0,0-11.33-30c-4.78,2.48-9.22,4.6-13.42,7.11a4.46,4.46,0,0,0-1.54,3.81C950.28,504.41,952.18,511.17,954.15,518.66Zm78.73-24.82c2.13,4.62,4.22,8.3,5.54,12.24s3.56,4.76,7.37,4.29c8-1,16.08-1.6,24.13-2.37,3.51-.34,7-.66,10.54-1l0-1ZM1016,512.91c-.8-10.56-7.53-24.85-11.77-25.57q3.76,12.72,7.55,25.57Z" transform="translate(-608.36 -22.87)"/><path class="cls-1" d="M761.52,501.15l3.17,1L847.13,527a1.25,1.25,0,0,1,.41.16q1.74,1.56,3.45,3.14c-1.26.76-2.46,2-3.79,2.19-9.07,1.08-18.16,1.93-27.24,2.86q-42.66,4.38-85.3,8.77c-20.25,2.07-40.5,4.15-60.76,6.1-1.09.1-2.29-1-3.44-1.58.73-1.08,1.21-2.66,2.23-3.17q43-21.75,86-43.27C759.64,501.77,760.64,501.49,761.52,501.15Zm76.39,28.3.09-1-22.17-6.7v10Zm-95.69,9.14.74.06V515.52h-.74Zm35.83-28.1-.87,0V535l.87,0Z" transform="translate(-608.36 -22.87)"/><path class="cls-1" d="M968.74,474.71l-95,52.56-.7-.68q4.17-8.07,8.35-16.13c8.26-15.92,16.47-31.87,24.88-47.72.68-1.29,2.92-2.92,4-2.66C929.43,464.7,948.52,469.6,968.74,474.71ZM908,468.19c10.3,5.81,20.27,11.45,30.26,17a3,3,0,0,0,2.38.32c5.44-2.86,10.81-5.85,16.94-9.21-1.8-.62-2.61-1-3.45-1.17-13.18-3.35-26.42-6.47-39.52-10.13C910.19,463.81,908.5,465.12,908,468.19Z" transform="translate(-608.36 -22.87)"/><path class="cls-1" d="M824.68,468.53c11.58,19.83,22.84,39.14,34.73,59.51l-87.17-32.27Zm-1.29,5.59c-7.58,3.09-7.58,3.09-7.58,10.35V498.4c0,9.05,0,9.06,8.69,12.31l24.55,9.17.59-.76Z" transform="translate(-608.36 -22.87)"/><path class="cls-1" d="M831.27,466.88l64.49-8c-10.45,22.77-20.55,44.77-31.11,67.75Zm19.89,1.6c0,7.91,0,15.37,0,22.84a8.69,8.69,0,0,0,.6,3.9c4,7.36,8.07,14.63,12,21.71,12.4-15.27,10.32-33,9.43-51.14Zm27.06,17,.84.25c3.25-7.1,6.5-14.19,10.07-22l-10.91,1.31Zm-32.56-16.28-7.94,1,7.19,12.82.75-.38Z" transform="translate(-608.36 -22.87)"/><path class="cls-1" d="M667.13,853.36c7.21.92,16.55,2,25.85,3.37a14.8,14.8,0,0,1,6.63,2.52c2.09,1.59,4.72,4,4.84,6.17.09,1.82-2.72,4.71-4.87,5.57a62.09,62.09,0,0,1-14.6,3.94,143.49,143.49,0,0,1-48.21-1.21c-2.17-.44-4.59-.85-6.33-2.07-2.43-1.71-6.21-4.39-6-6.26.29-2.5,3.45-5.52,6.1-6.71a50.35,50.35,0,0,1,13.8-3.56C651.16,854.22,658.05,854,667.13,853.36Zm22.76,7a21.12,21.12,0,0,0-2.72-.84c-15.95-2.56-31.9-2.8-47.75.61-3.95.85-7.7,2.6-11.55,3.93l.16,1.43,3.89,2.5c5.88-6.35,35.38-10,40.43-4.94l-.68,3.38c-6.26-.33-12.08-.79-17.91-.9-5.64-.1-11.38-.18-16.11,3.77a119.51,119.51,0,0,0,43.71,2.16C690.56,870.31,690.53,870.09,689.89,860.36Z" transform="translate(-608.36 -22.87)"/></svg>