<svg id="Capa_1" data-name="Capa 1" xmlns="http://www.w3.org/2000/svg" viewBox="0 0 567.34 715.06"><defs><style>.cls-1{fill:#00823d;}.cls-2{fill:#fad501;}</style></defs><path class="cls-1" d="M794.05,828.57q0-31.73,0-63.45c0-5.35,2.7-8.13,8.17-8.15,14.82-.06,29.65-.41,44.46.08,17.07.57,32,13.76,34.44,31.32,1.89,13.39,1.35,26.9.66,40.27s-11.43,28.72-30.23,32.43a44.7,44.7,0,0,1-11.79.78c-4.29-.29-6,1.11-5.81,5.61.31,7.81.11,15.65.08,23.48,0,6.31-2.7,9-9,9.08q-11.49.08-23,0c-5.89,0-8-2.19-8-8Q794,860.28,794.05,828.57Zm47-18.93v-18c0-6.16-.07-12.32,0-18.48,0-2.24-1.11-3.73-2.94-3.95s-3.25,1-3.32,3.35-.66,4.6-.67,6.89c-.06,14,0,28,0,42,0,7.33-.07,14.65,0,22,0,2.68.34,5.66,4.1,5.5s2.73-3.15,2.74-5.29C841.07,832.29,841,821,841,809.64Z" transform="translate(-696.83 -185)"/><path class="cls-1" d="M785.17,809.31q0,22.23,0,44.46c0,5-2.76,8.07-7.75,8.11-14.49.1-29,.53-43.45-.09-18.64-.79-34-13.32-36-32.89-2.16-21-.61-42.17-.78-63.25-.05-6.72,2.87-8.7,9.77-8.7,6.49,0,13,.06,19.48,0,10.35-.12,11.23,2.26,11.44,11.58.5,21.47.16,43,.16,64.44,0,4,0,8,0,12,0,2.32-.41,4.76,3.23,4.91,3.87.16,3.77-2.3,3.77-4.91q0-38.22,0-76.43c0-9.78,1.77-11.56,11.42-11.56,6.66,0,13.32,0,20,0s8.7,2.1,8.7,8.89Q785.19,787.59,785.17,809.31Z" transform="translate(-696.83 -185)"/><path class="cls-1" d="M1136.62,757c7.33,0,14.66-.05,22,0,5.7,0,8.44,2.84,8.46,8.46,0,6.16,0,12.33,0,18.49s-1.89,8-8,8q-17,.06-34,0c-2.84,0-5.38,0-5.21,4s2.93,3.77,5.58,3.78c11,0,22,0,33,0,6.78,0,8.78,1.8,8.54,8.37-.34,9.69,1.78,19.65-2,29-5.3,13.11-14.4,22-29,23.81-16.22,2-32.52.5-48.78.82-5,.1-8.11-3.21-8.21-8.31q-.24-13,0-26c.08-5.32,3.57-8.56,9.08-8.59,11.33-.07,22.65,0,34,0,2.44,0,4.78.14,4.88-3.34.1-3.77-2.37-3.7-5-3.69-11.16,0-22.32.06-33.48,0-6.45,0-8.63-1.4-9.24-7.62-1.77-18.11,3-35.46,23.1-44.54a32.18,32.18,0,0,1,12.83-2.78C1122.29,756.86,1129.45,757,1136.62,757Z" transform="translate(-696.83 -185)"/><path class="cls-1" d="M1264,821.25c0,10.49,0,21,0,31.47,0,6.4-2.68,9.17-8.87,9.18-15.49,0-31,.35-46.45-.08-18.55-.51-33.61-14.68-32.61-31.64,1-16.57,12.59-28.85,29.59-30.24,4-.33,8-.14,12-.13s6.51-1.37,6.33-6.09c-.26-6.82-.11-13.65,0-20.48,0-2.73-.68-4.43-3.92-4.36s-3.93,1.83-4,4.42c0,3.83.05,7.66,0,11.49-.11,4.87-2.1,7.05-6.81,7.1-8.82.11-17.65.09-26.47,0a7.07,7.07,0,0,1-6.65-8.47c3.86-16.08,17.61-26.93,32.79-26.49,9.25.27,18.73-1.42,27.7,1.34,15.43,4.75,28.37,17.8,27.52,36C1263.69,803.25,1264,812.26,1264,821.25Zm-40.2,9.17h.05c0-4.64,0-9.29,0-13.93,0-2.69-.86-4.58-3.91-4.51s-3.69,2.21-3.69,4.75c0,9.45,0,18.91,0,28.36,0,2.51.81,4.23,3.47,4.45,2.94.24,4.1-1.45,4.1-4.19Q1223.84,837.88,1223.84,830.42Z" transform="translate(-696.83 -185)"/><path class="cls-1" d="M1025,809.94c0,11.66,0,23.31,0,35,0,2-.59,4.4,2.7,4.94,3.55.58,4.66-1.84,4.77-4.22a228,228,0,0,0,.29-22.94c-.66-12.62,2.24-14.06,13.79-13.71,6.92.21,13.88-1,20.77.78,3.26.82,5.41,2.88,5.52,5.9.31,8.52.58,17-3.61,25.05-6.72,13-17.45,20-31.52,21-9.57.7-19.29,1.14-28.82-2.48-13.62-5.18-24-18.79-24-33.34,0-10.82.1-21.65,0-32.47-.24-20,17.06-36.43,36.56-36.43,9.68,0,19.37-.8,28.85,2.74,13,4.84,24.06,21.5,22.68,35.2-.44,4.38-3,6.91-7.43,7q-13,.2-26,0c-4.64-.07-6.59-2.29-6.67-7.24-.11-7,.11-14-.29-21-.12-2.18-.25-5.43-4.45-4.83-3.88.56-3.13,3.23-3.14,5.6C1025,786.3,1025,798.12,1025,809.94Z" transform="translate(-696.83 -185)"/><path class="cls-1" d="M1089.52,677c-9.66,0-19.32.17-29-.05-11.52-.26-22.88-2.26-34.29-3.68-9.79-1.22-19.62-2.16-29.42-3.28-14.69-1.67-29.4-3.17-44-5.17-6.74-.92-8.76-3.9-8.78-10.79,0-9.33.39-18.68-.13-28-.46-8.19,3.62-11.56,9.94-14,11.24-4.29,22.66-8.09,34-12.15,20.2-7.23,40.38-14.56,60.6-21.71a37.22,37.22,0,0,1,12.5-2.22c20.48,0,41,0,61.45,0,8.44,0,10.57,2.12,10.57,10.41,0,13.49,0,27,0,40.47,0,7.75-1.5,9.22-9.15,9.22h-9.49c-2.66,0-3.11-1.1-1.19-2.81,1.72-1.53,1.88-3.34,1.87-5.38-.07-9.49-.23-19-.07-28.47.06-3.64-1.42-4.54-4.75-4.49-10.16.14-20.32.18-30.48,0-3.86-.08-4.83,1.51-4.77,5.06.17,9.32.08,18.65,0,28,0,6.1-1.93,8.11-7.84,8.13q-13.24,0-26.48-.11c-.87,0-2.11.49-2.56-.8-.34-1,.56-1.44,1.09-2,.33-.37.93-.69,1-1.09a86.18,86.18,0,0,0,.06-27.62c-.45-2.93-5.6-1.83-8.3-.25-8.27,4.85-16.37,10-24.53,15s-16,9.94-24.06,14.79c-1.9,1.14-4.13,2.28-4.15,4.46,0,2.63,2.7,2.92,4.73,3.45,16.73,4.31,33.46,8.67,50.23,12.8,2.06.51,5.22,1.5,6.45-.68,1-1.83,1.29-4.87-2.1-6.18-1-.4-.63-1.52.62-2.07a9.05,9.05,0,0,1,3.79-.83c7.66,0,15.32-.06,23,0,6.55.09,9.15,2.45,9,8.87-.13,4.39,2.6,5.21,5.52,4.87,10.43-1.2,20.88-.47,31.31-.83,3.66-.13,5.06-6,1.64-9.34-2.85-2.82,0-3.21,1-3.3,4.91-.41,10-1.09,14.71.76,3.45,1.35,3.72,4.78,3.84,7.89.17,4.49,0,9,0,13.49,0,7-2.42,9.5-9.46,9.54C1112.17,677,1100.84,677,1089.52,677Zm-32.79-69.8c-.39-7.26.33-14.75-.5-22.23-.64-5.8-.5-5.92-6.22-3.91Q1024,590.17,998,599.46c-14.21,5.06-28.44,10.09-42.6,15.31-7.71,2.84-8.28,4-8.24,12.05,0,8.82,0,17.65,0,26.47,0,6.85.49,7.76,7.35,8.64,19.28,2.47,38.59,4.73,57.9,7,13,1.51,26.11,2.76,39.15,4.27,4,.46,5.37-1.07,5.2-5-.22-5-.18-10,0-15,.13-4-1.81-5.33-5.53-5-3.2.32-7.29-1.36-7.18,4.65.11,5.53-1.7,6.62-7.18,5.3-7.1-1.71-14.19-3.47-21.28-5.23-10.95-2.73-21.92-5.39-32.83-8.27-2.84-.75-6.11-1.67-6.83-5.1-.76-3.63,2.27-5.27,4.72-6.91,3.86-2.58,7.84-5,11.79-7.44q18.87-11.64,37.77-23.25c3.45-2.14,7.06-3.21,10.82-1.2,3.57,1.91,3.11,5.52,3.11,8.85,0,6.49.12,13,0,19.48-.08,3.05,1.06,4.3,4,4.06a24.16,24.16,0,0,1,4,0c2.87.24,4-.73,4.23-3.87C1056.94,622,1056.37,614.69,1056.73,607.16Z" transform="translate(-696.83 -185)"/><path class="cls-1" d="M977,809.07V852c0,7.6-2.3,9.88-10,9.91q-10.23,0-20.47,0c-7.17,0-10.43-3.23-10.45-10.58,0-17.8,0-35.61,0-53.41,0-10,0-20,0-29.95,0-8,3-11,10.88-11,7.15,0,14.31,0,21.46,0,6,0,8.63,2.67,8.63,8.69Q977,787.36,977,809.07Z" transform="translate(-696.83 -185)"/><path class="cls-1" d="M929,809.78q0,21.48,0,43c0,6.46-2.37,9-8.8,9.14-7.82.14-15.65.12-23.48,0-5-.08-7.79-3-7.8-8.1q-.06-44.46,0-88.92c0-4.81,2.8-7.79,7.51-7.88q12.48-.22,25,0c5,.08,7.56,3,7.58,8.34C929,780.14,929,795,929,809.78Z" transform="translate(-696.83 -185)"/><path class="cls-1" d="M810.55,486c-11,0-22-.15-32.94.07-4.45.09-6.67-1.86-7.53-5.95-2.66-12.7-3.84-25.6-5-38.5-.45-5.08,1.07-6.6,6-6.6H836c5.25,0,6.65,1.61,7.18,7.07,1.19,12.39,1.51,24.88,4.75,37,1.49,5.59.21,6.87-5.45,6.87Q826.53,486,810.55,486Z" transform="translate(-696.83 -185)"/><path class="cls-1" d="M810.22,377c10.66,0,21.33,0,32,0,5.15,0,7,2.19,5.73,7.17-3.23,12.33-3.91,25-4.76,37.59-.29,4.24-2.24,6.36-6.54,6.35-22,0-44-.07-66,0-4.21,0-5.82-2.07-5.56-5.75,1-13.43,2-26.87,5.2-40,.88-3.62,3.14-5.61,7.43-5.5C788.56,377.23,799.39,377,810.22,377Z" transform="translate(-696.83 -185)"/><path class="cls-1" d="M1077.38,402h-31c-10,0-12.77-2.18-13.32-12-.44-7.77-2.15-15.29-3.34-22.91-1.22-7.86.19-10,8.34-10.09,13.66-.12,27.32-.19,41,0,7.93.12,15.83-.32,23.81.56s11.58,4.94,12.65,12.28c1.16,7.95,2.6,15.87,3.39,23.85.6,6.08-1.51,8.17-7.56,8.24-11.32.13-22.65,0-34,0A.08.08,0,0,0,1077.38,402Z" transform="translate(-696.83 -185)"/><path class="cls-1" d="M1073,501h-32.47c-6.1,0-7.58-2-6.72-8.05,1.23-8.61,2.23-17.26,3.11-25.92.82-8.11,3-10.82,11.28-10.92,21.48-.27,43-.67,64.43.16,10.32.4,9.92,1.56,9.23,13.4-.39,6.68-1.91,13.28-2.76,19.94-1,7.48-5,11.33-12.64,11.38C1095.27,501.06,1084.11,501,1073,501Z" transform="translate(-696.83 -185)"/><path class="cls-1" d="M813,370.16c-11,0-22,0-33,0-5.65,0-6.17-.94-4.5-6.34A216.69,216.69,0,0,1,788,333.58c1.87-3.88,4.79-5.54,9-5.54,21.47,0,42.95,0,64.42,0,5.43,0,6.34,1.7,3.94,6.49-4.9,9.76-9.48,19.66-12.42,30.21-1.16,4.18-3.53,5.6-7.91,5.47C834.32,370,823.66,370.17,813,370.16Z" transform="translate(-696.83 -185)"/><path class="cls-1" d="M812.82,493c10.82,0,21.64.1,32.45-.05,4,0,6.39,1.14,7.61,5.24a176.84,176.84,0,0,0,12.35,30.2c2.52,4.91,1.54,6.47-4.2,6.58-5.49.1-11,0-16.47,0-15.81,0-31.62-.1-47.43.07-4.36,0-7.18-1.59-9-5.44-4.66-9.85-9.4-19.65-12.42-30.19-1.57-5.49-1-6.42,4.67-6.42Q796.6,493,812.82,493Z" transform="translate(-696.83 -185)"/><path class="cls-1" d="M1041.79,352.05c-15.69-1.15-32.43,3.72-49.43,6.43-.31,0-.61.41-.9.39-2.91-.21-6.56,2.11-8.46-1.71-1.71-3.45,1.11-5.72,3.16-7.89,9.19-9.72,17.61-20.15,27.3-29.41a19.47,19.47,0,0,1,14-5.81c18.47,0,36.94.09,55.41-.07,3,0,5.29.84,6.71,3.24s-.08,4.46-1.51,6.27c-7.06,8.89-14.21,17.71-22.51,25.5-2.46,2.31-5.69,3.05-9,3.06Z" transform="translate(-696.83 -185)"/><path class="cls-1" d="M1063.66,408c8.36,0,15.19,0,22,0,3.22,0,6.22.83,7.24,4,1.15,3.52-2.12,4.88-4.51,6.14-5.31,2.8-10.74,5.37-16.16,7.95-1.57.75-3.09,1.6-3.08,3.46s1.57,2.71,3.09,3.49c5.2,2.71,10.34,5.54,15.57,8.19,2.64,1.34,5.37,3.2,4.87,6.09-.54,3.09-4.13,3.52-6.85,3.62-6.15.23-12.33.25-18.48,0-10.07-.36-20.4,1.78-30.17-1.38-9.26-3-18.13-7.22-27.16-10.94-4.21-1.74-8.38-3.57-12.57-5.35-1.9-.81-3.4-1.82-3.63-4.19-.25-2.59,2.14-3.2,3.35-3.65,14.63-5.42,28.35-13.29,43.65-16.83C1048.8,406.8,1057.07,408.48,1063.66,408Z" transform="translate(-696.83 -185)"/><path class="cls-1" d="M1014.61,241.08c9.5,0,19-.08,28.49,0a58.59,58.59,0,0,1,9.8.93c2.95.54,4.36,2.37,3.2,5.58-2.21,6.13-4.31,12.3-6.49,18.44-1.07,3-3.14,4.12-6.46,4.07-13-.19-26,.52-39-.28-8.83-.55-15,3-21,8.56-4.92,4.54-10.42,8.44-15.57,12.73-2,1.65-4,2.36-6.17.84-2.38-1.64-2-4.26-1.24-6.37,4.22-12.49,8.66-24.9,13-37.35,1.9-5.42,6-7.23,11.41-7.22C994.61,241.1,1004.61,241.08,1014.61,241.08Z" transform="translate(-696.83 -185)"/><path class="cls-1" d="M1054.48,308.08c-11.66,0-23.31-.07-35,0-3.72,0-6.09-1.37-7.67-4.81-2.93-6.38-6.26-12.58-9.24-18.94-2.4-5.13-.53-8.34,5.12-8.36,23.15-.09,46.29,0,69.44.06,5.22,0,8.5,3,10.72,7.3,2.75,5.35,5.49,10.71,7.91,16.21,2.33,5.29.25,8.39-5.83,8.49-11.82.18-23.64.05-35.47.05A.08.08,0,0,1,1054.48,308.08Z" transform="translate(-696.83 -185)"/><path class="cls-1" d="M888.46,679c-6.49,0-13,.1-19.48,0s-8.34-1.95-7-8.12q6.84-31.84,14-63.62c.73-3.24,2.47-5.51,6.51-5.4,8.32.22,16.65.12,25,0,2.8,0,5.13.63,5.56,3.66.49,3.39,4,6.82-.15,10.3-7,5.84-15.23,9.94-22.6,15.26-3.21,2.31-6.39,4.34-6.4,9.15,0,4,1.55,6.46,5.06,8.11q13.23,6.24,26.38,12.68c6.11,3,5.6,3,3.12,9.51-2.62,6.91-7.15,9-14,8.53C899.13,678.66,893.78,679,888.46,679Z" transform="translate(-696.83 -185)"/><path class="cls-1" d="M837.54,541c9.48,0,19,0,28.43,0,4.54,0,7.82,1.45,10.6,5.53a94.64,94.64,0,0,0,12.61,15.08c4.21,4,3.29,6.71-2.29,8.66a15.37,15.37,0,0,1-5.3.73c-17.12,0-34.27-.55-51.36.25-8.08.38-13.23-3.63-17.74-8.54-3.38-3.69-7.32-7-10-11.44-1.39-2.27-3.6-4.31-2.12-7s4.21-3.31,7.25-3.28C817.6,541.07,827.57,541,837.54,541Z" transform="translate(-696.83 -185)"/><path class="cls-1" d="M836.78,322.05c-9.81,0-19.63-.14-29.44.08-3.18.07-5.7-.73-7.06-3.45-1.26-2.54.53-4.58,2-6.61,4.75-6.44,10.93-11.5,16.34-17.3a5.93,5.93,0,0,1,4.85-1.85q30.94.06,61.88,0c2.77,0,4.75.7,5.89,3.42s-.79,3.87-2.22,5.34A122.15,122.15,0,0,0,876,317.57a9.74,9.74,0,0,1-8.77,4.56C857.08,321.91,846.93,322.05,836.78,322.05Z" transform="translate(-696.83 -185)"/><path class="cls-1" d="M995.49,215.08c11.65,0,23.29.1,34.94-.05a14.29,14.29,0,0,1,10.56,4.33c2.13,2,3.85,4.45,6.62,5.91a5,5,0,0,1,2.4,5.54,5.56,5.56,0,0,1-4.33,4.27,35.53,35.53,0,0,1-7.25,1.07q-29.94-.17-59.89,0c-4.85,0-8.9-1.41-12.29-5.05-3-3.24-6-6.54-9.83-9-1.43-.93-3.27-2.35-2.29-4.46.88-1.91,2.68-2.56,5-2.54C971.2,215.14,983.34,215.08,995.49,215.08Z" transform="translate(-696.83 -185)"/><path class="cls-1" d="M959.49,201.09h33.44c2.8,0,6.71-.19,6.81,3,.11,3.43-2.87,5.21-6.94,5.16-16.3-.22-32.61.06-48.9-.2-4.16-.07-6.2,1.42-7.86,5-3.39,7.38-7.23,14.55-10.89,21.81a14.82,14.82,0,0,1-1.85,3.4c-1.16,1.29-2.19,3.27-4.41,2.65s-2.72-2.83-2.81-4.72c-.2-4.48-.64-9.08.09-13.45.83-5,.56-9.89.82-14.83.27-5.11,2.88-7.85,8.06-7.88C936.54,201,948,201.09,959.49,201.09Z" transform="translate(-696.83 -185)"/><path class="cls-1" d="M909.47,200c-.88,15.61-1.8,30.52-4.25,45.28-1,6-1.49,12.06-2.17,18.09-1,8.75-5.17,11.25-12.78,7.38A72.4,72.4,0,0,0,876,265.65c-7.09-1.9-8.19-3.95-7.16-11.15,2.91-20.27,8.62-39.82,15.1-59.17,2.18-6.52,6.19-8.29,12.41-5.58,3.26,1.42,6.6,2.58,9.7,4.52C908.79,196,908.78,198.47,909.47,200ZM904,210.85c.21-15,2-11.48-9.6-16.73-3.15-1.43-5.12-.33-6.12,2.8-6.25,19.44-12,39-14.8,59.31-.35,2.54.29,4.17,3,4.76a67.13,67.13,0,0,1,16.81,6c2.85,1.48,4.19.69,4.68-2.52C900.86,245.92,902.78,227.25,904,210.85Z" transform="translate(-696.83 -185)"/><path class="cls-1" d="M825.61,189.19c6.1-.68,8.12,2.13,9.15,5.26,6.5,19.67,12.29,39.55,15.33,60.1,1.18,8-.21,9.66-8.4,11.61a69.68,69.68,0,0,0-14.14,5.19c-6.18,3-10.31,1.2-11.43-5.39-1.26-7.42-2.25-14.9-3-22.39q-2.18-20.56-3.91-41.18a7.87,7.87,0,0,1,2.51-6.63C816.19,191.61,822,190.62,825.61,189.19Zm-11.37,13.43c.68,8.16,1.11,15.46,1.93,22.72,1.48,13,3.22,26,4.81,39,.4,3.25,1.59,4.42,4.9,2.73a60.65,60.65,0,0,1,15.86-5.7c3.63-.71,4.32-2.49,3.74-6a371.78,371.78,0,0,0-13.17-53c-3.77-11.79-3.15-9.33-12.72-5.87C816.3,197.68,813.23,199,814.24,202.62Z" transform="translate(-696.83 -185)"/><path class="cls-1" d="M851,608.46c-1.39,9.77-4.24,21.53-7.26,33.24a243.53,243.53,0,0,1-8.5,27c-2.12,5.48-5.2,7.18-10.53,5.29a81.55,81.55,0,0,1-9.91-4.08c-4.74-2.42-5.54-6.93-4.66-11.52,1.31-6.85.84-13.8,1.82-20.67,1.88-13.15,3-26.41,5.06-39.54,1.25-8.15,4.71-9.7,11.79-5.92a55.29,55.29,0,0,0,15.63,5.46C849.57,598.69,851.46,601.36,851,608.46Zm-35.79,51.42c-.88,3.68.75,6,4.58,7.19a58,58,0,0,1,6,2.35c2.7,1.15,4.44.45,5.34-2.43,1.43-4.58,3.11-9.1,4.44-13.71,4.23-14.64,8.18-29.35,10.47-44.46.6-4-.37-6.15-4.71-6.91a53.41,53.41,0,0,1-13.52-4.83c-5.13-2.44-5.5-2.36-6.34,3.16C818.49,619.93,816.55,639.74,815.21,659.88Z" transform="translate(-696.83 -185)"/><path class="cls-1" d="M965.92,247.81c-.75,3.87-3,8.22-4.84,12.73-5.63,14-10.81,28.29-18.91,41.18-4.22,6.7-7.42,7.17-12.62,1.43-5.82-6.43-11-13.38-17.89-18.83-2.69-2.15-2.3-4.93-.94-7.59A371.7,371.7,0,0,1,941,226.82c2.94-4,7.34-3.54,11.16.81,4,4.56,7.88,9.22,11.84,13.82A7.89,7.89,0,0,1,965.92,247.81Zm-5.19.78a5,5,0,0,0-1.15-5.13c-3.34-3.92-6.88-7.68-10.15-11.66-2.72-3.31-4.61-2.63-6.84.58-9.89,14.2-18.44,29.19-26.71,44.35-1.43,2.62-1.1,4.47,1.18,6.51a120.3,120.3,0,0,1,14.41,15.18c3.87,4.9,4.93,4.85,7.9-.71,8.3-15.53,14.93-31.8,21.07-48.27C960.68,248.83,960.86,248.19,960.73,248.59Z" transform="translate(-696.83 -185)"/><path class="cls-1" d="M809.13,280.68c.31,1.51-.5,2.48-1.48,3.46-6.43,6.43-12.84,12.86-18.87,19.69-4.45,5.05-8.21,4.61-11.65-1.12-7.39-12.28-12.82-25.53-18.11-38.81-1.8-4.52-3.17-9.24-5.18-13.66a7.42,7.42,0,0,1,1.26-8.57c4.59-5.4,9.13-10.87,14.37-15.68,3-2.8,5.55-1.81,8,.82,5.66,6.14,9.77,13.39,14.14,20.39,5.83,9.35,10.84,19.21,16.12,28.9C808.45,277.49,809.56,278.88,809.13,280.68Zm-50.89-32.21c-.11-.51,0,.33.25,1.1,6.31,17,13.19,33.67,21.76,49.63,1.89,3.53,3.87,3.77,6.33.64a114.44,114.44,0,0,1,15.68-16.73c2-1.68,2.19-3.48,1-5.73-8.38-15.51-17-30.85-27.27-45.24-2.22-3.12-4-2.81-6.22-.19-3.25,3.79-6.64,7.45-9.94,11.2A5.71,5.71,0,0,0,758.24,248.47Z" transform="translate(-696.83 -185)"/><path class="cls-1" d="M756.25,381.25q-2.47,13.83-3.71,27.81c-.23,2.64-.19,5.27-.36,7.9-.4,6.31-4.76,9.84-10.86,8.14-13.82-3.86-27-9.55-39.7-16.08a7.38,7.38,0,0,1-4-7c.79-9.42,1.82-18.85,3.42-28.16.9-5.23,5.15-6.73,10.6-6.28,9.83.82,19.64,1.76,29.37,3.39a56.49,56.49,0,0,1,9.53,2C754.18,374.33,756.69,376.87,756.25,381.25Zm-53.62,17.48c-1.31,3.92,1.54,6.83,6.68,9.11a290.16,290.16,0,0,0,32,12.45c3.72,1.15,5.83.56,6-3.72.08-2.15.43-4.3.5-6.45.3-8.49,1.64-16.84,3-25.21.46-2.82,2-6.75-2.83-7.67a331.79,331.79,0,0,0-37-4.83c-2.84-.22-5.3.47-5.68,4.07C704.47,383.25,703.64,390,702.63,398.73Z" transform="translate(-696.83 -185)"/><path class="cls-1" d="M810.06,583.7c-.92,3-2.9,6.39-4.78,9.81a415.72,415.72,0,0,1-23.91,39c-5.75,8.15-7.82,8.52-14.74,1.67a136.86,136.86,0,0,1-11.54-13.45,6.93,6.93,0,0,1-.92-7.22c6.66-17.14,13.42-34.25,22.18-50.46A16.87,16.87,0,0,1,779,559c2.38-2.38,5.27-4.38,8.31-1.31,7.46,7.54,14.68,15.3,22,23C809.94,581.3,810.18,582,810.06,583.7Zm-36.43,50.36a6,6,0,0,0,3-2.67c10.23-14.16,18.73-29.37,27.12-44.65,1.41-2.57,1.24-4.39-1.09-6.48A128.92,128.92,0,0,1,788,564.71c-3.61-4.52-4.84-4.38-7.65.89a345.33,345.33,0,0,0-16.41,36.2c-6.5,16.53-6.53,16.52,5.9,29.3a24.7,24.7,0,0,0,2.15,2.07A8.66,8.66,0,0,0,773.63,634.06Z" transform="translate(-696.83 -185)"/><path class="cls-1" d="M712.24,496c-7.75,0-10.54-2.83-11.3-10.3-.73-7.16-2-14.27-2.76-21.44-.41-3.86.26-7.25,4.26-9.6,12.46-7.33,26-12,39.59-16.51,6.12-2,10.93,2.14,11,8.82a175.65,175.65,0,0,0,4,33.74c.91,4.42-2.31,9.32-7.16,10.28a199.05,199.05,0,0,1-27.7,3.93C718.66,495.13,715.35,496.65,712.24,496Zm2.64-5.05c10.18-.75,21.49-2.46,32.78-4.31,3.75-.62,5-2.73,4.18-6.36a183.87,183.87,0,0,1-3.75-32.56c-.14-4.5-2.35-5.72-6.06-4.49-12.09,4-24.06,8.38-35.38,14.34C704,459,702.81,461,703.18,464c.84,6.75,1.39,13.53,2.37,20.26C706.58,491.23,706.74,491.2,714.88,491Z" transform="translate(-696.83 -185)"/><path class="cls-1" d="M1006.54,497c-11.9-1.31-24.46-2.61-36.82-5.13-6.35-1.29-8-5.07-7.06-11.56,1.49-10.24,3.67-20.46,3.27-30.87-.31-8.17,5.83-12.55,13.16-9.81,11.89,4.44,23.76,8.86,35.2,14.33,5.93,2.84,7.12,6.09,6.07,12.7s-1.66,13.36-2.26,20.07C1017.43,494.14,1014.47,497,1006.54,497Zm-.44-5c2.47-.61,6.29,1.38,6.86-3.41,1-8.07,1.89-16.14,2.85-24.21.28-2.37-.38-4.32-2.56-5.45A201.59,201.59,0,0,0,976,444c-3.09-.88-4.9.17-4.94,3.51-.14,11.48-1.75,22.81-3.76,34.08-.62,3.47.67,5.38,4.15,6C982.87,489.48,994.36,491,1006.1,492Z" transform="translate(-696.83 -185)"/><path class="cls-1" d="M1021.07,398.58c1.52,6.57-2.17,9.93-7.43,12.25-11.17,4.92-22.23,10.08-34,13.43-8.48,2.41-12-.13-12.81-8.72-1-10.45-1.13-21-3.67-31.29-1.63-6.62,1.84-11.07,8.52-12.37,11.61-2.25,23.37-3.29,35.06-4.81,6.87-.89,9.83,1.34,11.47,8.16C1020,382.94,1020.17,390.84,1021.07,398.58Zm-13.78-26.27a299,299,0,0,0-33.08,4.05c-6.74,1.2-7.14,1.75-6,8.49a238.44,238.44,0,0,1,3.56,31.63c.14,4.07,2.15,4.7,5.6,3.67a227.27,227.27,0,0,0,35.89-14.43c2.23-1.11,3.59-2.8,3.25-5.57q-1.39-11.37-2.58-22.76C1013.51,373.24,1011.52,371.35,1007.29,372.31Z" transform="translate(-696.83 -185)"/><path class="cls-1" d="M1004.18,316.06c-.74,2.58-1.49,4.81-3.08,6.44-10.79,11.09-20,23.7-32.25,33.4-7,5.57-11.33,2.65-13.69-3.59-3.11-8.23-6.14-16.46-10.3-24.22-2.13-4-2.05-7.23,1.68-10.3,12.07-9.94,24.36-19.54,38.29-26.84,3.38-1.77,6.81-1.54,8.86,1.36C998.81,299.54,1000.44,308.41,1004.18,316.06Zm-5.26-.19c-2.12-5.29-4.63-10.9-6.62-16.69-1.6-4.64-4-4.85-7.91-2.78-12.26,6.53-22.61,15.73-33.83,23.73-2.48,1.77-2.51,3.92-1.12,6.51a156.7,156.7,0,0,1,9.5,22.42c2.06,5.84,3.54,6.1,8.33,2.14,11.08-9.18,20.11-20.3,29.6-31A6,6,0,0,0,998.92,315.87Z" transform="translate(-696.83 -185)"/><path class="cls-1" d="M756.18,359.12c-4-.36-6.58-3.25-9.11-5.56-10.76-9.81-20.28-20.82-29.83-31.79-1.79-2-2.76-4.56-1.4-7.66,2.48-5.65,4.43-11.52,6.77-17.23,3-7.21,7.2-8.66,13.86-4.71,10.64,6.3,20.53,13.69,30.42,21.08.78.58,1.62,1.1,2.35,1.73,5.78,4.95,8.56,6.62,4,15.08a136.46,136.46,0,0,0-9.16,22C762.79,355.85,760.26,358.45,756.18,359.12Zm14.14-34.6a4.11,4.11,0,0,0-1.56-3.93c-11.45-8.5-22.39-17.72-35.08-24.45-3.22-1.71-5.3-1.09-6.62,2.32-2,5.25-4.1,10.49-6.28,15.68a4.9,4.9,0,0,0,.68,5.56c9.83,11.25,19.31,22.83,31,32.34,4,3.24,5.81,2.73,7.5-2.26a183.35,183.35,0,0,1,9.27-22.47C769.68,326.28,770.05,325.18,770.32,324.52Z" transform="translate(-696.83 -185)"/><path class="cls-1" d="M731.3,573.11c-3.88.46-6-2.35-7.21-5-3-6.48-5.49-13.21-8-19.93a6.37,6.37,0,0,1,1.64-6.43c11-12.3,21.61-25,34.44-35.53,4.07-3.34,8.94-2.14,10.93,2.18,4.4,9.58,7.58,19.7,12.6,29a5.53,5.53,0,0,1-1.64,7.18c-12.65,10-24.85,20.6-39.54,27.68A7,7,0,0,1,731.3,573.11Zm-10.24-25.67a7,7,0,0,0,.22,1.47q2.61,6.71,5.28,13.38c2.9,7.32,3.57,7.56,10.28,3.82,11.49-6.43,21.57-14.85,32.08-22.67,2.69-2,2.63-4.1,1.24-6.9a174.8,174.8,0,0,1-9.25-21.95c-2-5.94-4-6.36-8.8-2.25-10.8,9.19-19.87,20-29.14,30.66C721.87,544.26,720.78,545.57,721.06,547.44Z" transform="translate(-696.83 -185)"/><path class="cls-1" d="M949,185.09h28a7.6,7.6,0,0,1,2.48,0c2.66,1,6.74-.25,7.53,3.71.56,2.82-4.55,7.09-8.19,7.21-4.32.14-8.66,0-13,0-13.49,0-27-.1-40.46,0-5.18.06-9.07-2.17-12.56-5.64-2.55-2.53-1.58-3.71,1.45-4.56,5.38-1.53,10.85-.67,16.28-.81C936.64,185,942.81,185.09,949,185.09Z" transform="translate(-696.83 -185)"/><path class="cls-1" d="M857.89,188.09,860,188c10.13-.64,11.43.93,9.55,11.55-1.48,8.37-2.81,16.77-4.44,25.11-.56,2.88-1.16,6.83-4,7.06s-4.18-3.46-5.23-6.33c-3.47-9.53-5.45-19.45-7.76-29.27-1.39-5.91.42-8,6.42-8Z" transform="translate(-696.83 -185)"/><path class="cls-1" d="M1244.38,625.2c-4-.2-6.08-2-6.58-5.69-1.35-10-3.21-20-8.18-29a64,64,0,0,0-3.83-5.62c-1.81-2.59-2.16-5.14.74-7.09,2.55-1.72,5.27-1.82,7.53.64A56.23,56.23,0,0,1,1247,602.73a83.47,83.47,0,0,1,2.25,16.52C1249.46,623.35,1247.57,624.76,1244.38,625.2Z" transform="translate(-696.83 -185)"/><path class="cls-1" d="M977.05,689.77c3.25-.27,6.5.36,9.81-.64,3.64-1.09,6.66,2.5,5.53,6.15a72.53,72.53,0,0,1-8.64,18.46c-2.08,3.16-4.39,4.3-7.18.49a65.13,65.13,0,0,1-10.12-20.42c-.74-2.52,1-4.37,4.12-4.09C972.72,689.93,974.89,689.77,977.05,689.77Z" transform="translate(-696.83 -185)"/><path class="cls-1" d="M925.12,639.5c0,2.49,0,5,0,7.48,0,4.77-1.47,6.33-6,4.95-6.52-2-12.93-4.49-18.45-8.65-3.92-3-3.79-4.73.34-7.42a73.11,73.11,0,0,1,18.22-9.05c4.1-1.27,5.79,0,5.84,4.23C925.14,633.85,925.12,636.67,925.12,639.5Z" transform="translate(-696.83 -185)"/><path class="cls-1" d="M974.43,560c7.42,6,10.54,14.48,13.49,22.94,1.09,3.15-1.67,5.73-5.34,5a37.43,37.43,0,0,0-15.13,0c-4,.79-6.71-2.16-5.38-5.94C964.88,574,967.67,565.89,974.43,560Z" transform="translate(-696.83 -185)"/><path class="cls-1" d="M925.34,585.93c6.4,2.14,14.21,2.84,20.35,8,2,1.74,2.41,2.88.19,4.92a152,152,0,0,0-12.67,12.71c-2.92,3.38-4.81,1.46-6.27-.79-3.92-6-5.93-13-7.83-19.84C918.2,587.7,920.63,585.64,925.34,585.93Z" transform="translate(-696.83 -185)"/><path class="cls-1" d="M951.24,683.94a6.71,6.71,0,0,1-4,5,85.45,85.45,0,0,1-18.76,6.81c-3,.71-5.81-1.31-5.18-4.16,1.66-7.58,3.5-15.23,7.71-21.93,1.47-2.35,3.5-3.6,5.73-.69a85.53,85.53,0,0,0,12.45,12.5A19.22,19.22,0,0,1,951.24,683.94Z" transform="translate(-696.83 -185)"/><path class="cls-1" d="M863.44,577c4.82,0,9.65.07,14.47,0,3.55-.07,6.61,1.24,6.87,4.79.23,3.16-2.38,5-5.62,5.78A53.92,53.92,0,0,1,851,587a5.43,5.43,0,0,1-2.21-1c-2.07-2-5.76-3.35-4.65-6.87,1-3.08,4.37-2.07,6.86-2.13C855.13,576.92,859.29,577,863.44,577Z" transform="translate(-696.83 -185)"/><path class="cls-1" d="M866.82,274.07c4.23-.42,8.65.88,13.11,1.91a5.56,5.56,0,0,1,4.6,5.89c-.28,3.05-2.75,4.33-6.14,4.26-10-.21-19.94-.08-29.9-.07-1.65,0-3.62.37-4.37-1.5-.85-2.09.33-3.7,1.92-5.17,4.52-4.2,10.37-4.25,15.89-5.28A29,29,0,0,1,866.82,274.07Z" transform="translate(-696.83 -185)"/><path class="cls-1" d="M1163.91,616.84c1.51-11.26,3-22.3,10.74-31.11,1.69-1.93,4-3.3,6.14-4.83,1.77-1.27,3.21-.83,4.64.85,2.18,2.56,3.26,5.66,4.64,8.6,2.41,5.14,4.78,10.3,7,15.54,1,2.41-3.14,8.53-6.12,9.13-3.68.74-4.27-2.12-5.11-4.65-1.18-3.56-2.34-7.13-3.67-10.63-.35-.93.25-2.59-1.54-2.7a3.42,3.42,0,0,0-3.11,2.18c-2.35,4.4-3.11,9.25-3.51,14.16-.15,1.81.09,3.72-.39,5.42-.68,2.43-1.18,5.38-4.77,5.26s-3.68-3.19-4.64-5.51A5.64,5.64,0,0,1,1163.91,616.84Zm3.32-.73c.53,1.29-.85,4.46,1.75,4.48,2.32,0,1.64-3.07,1.85-4.94.07-.66,0-1.33.09-2,.64-6.31,1.78-12.51,5.5-17.82,3-4.31,5.93-4,7.82.9,1.55,4,2.67,8.17,4,12.25,1,3,2.42,3,4.55.84a4.09,4.09,0,0,0,.87-5.32c-2.75-5.65-5.4-11.36-8.17-17-2.39-4.89-3.44-5-7.46-1C1170,594.55,1168.29,605,1167.23,616.11Z" transform="translate(-696.83 -185)"/><path class="cls-1" d="M1200.32,664c5.42.16,9.73-2.36,13.66-5.73,2.23-1.91,5.29-3.88,7.36-1.7s1,5.89-1.43,8c-9.64,8.45-22,13-34.09,4.54-3.78-2.65-5.75-6-4-10.89,2.22-6.13,4-12.44,6.25-18.55.9-2.4,1.83-5.77,5.84-4.25,3.61,1.37,6.61,2.88,4.23,7.83-1.82,3.79-2.89,7.95-4.22,12C1191.72,661.91,1193.2,663.93,1200.32,664Zm-.86,6.3a22.94,22.94,0,0,0,18.26-7.68c.81-.88,1.82-1.87.75-3s-1.73.32-2.49.78c-1,.61-1.89,1.36-2.83,2-5.39,3.92-11.22,5.67-17.82,3.62-5.54-1.72-7-4.33-5.11-9.69q2.37-6.81,5-13.52c.73-1.86.74-3.23-1.34-4-2.42-.92-2.79.95-3.31,2.53-1.62,4.89-3.2,9.78-4.81,14.67-2.6,7.92,0,12.28,8.22,13.84A49.76,49.76,0,0,0,1199.46,670.26Z" transform="translate(-696.83 -185)"/><path class="cls-1" d="M1207.62,609c-3,.17-4.65-1.26-5.88-4-3.34-7.4-7-14.65-10.43-22-.71-1.53-2.59-3.36-.9-4.88a7.41,7.41,0,0,1,6.72-1.73c3.84.76,5.31,3.72,6.81,6.45a125.8,125.8,0,0,1,8.51,19C1214.09,606.51,1212.46,608.87,1207.62,609Z" transform="translate(-696.83 -185)"/><path class="cls-1" d="M794.6,222c8.14-.91,10.59,1.08,11.49,8.73.54,4.54,1.27,9.06,1.92,13.59.36,2.53-.19,4.83-2.71,5.77s-4.08-.67-5.31-2.61c-3.72-5.89-7.52-11.73-11.07-17.72-3.19-5.38-2.17-7.16,4.07-7.75A14.51,14.51,0,0,1,794.6,222Z" transform="translate(-696.83 -185)"/><path class="cls-1" d="M1215.58,616a17.53,17.53,0,0,1,3,0c4.73.81,4.75-2,4.11-5.29a46.45,46.45,0,0,0-8.21-19.61c-1.47-2-2.86-4.2,0-6.36s4.72-.52,6.3,1.53c7.39,9.53,11,20.56,12,32.42.38,4.56-1.84,7.67-6.89,8.53-4.79.82-9.49,2.24-14.21,3.49-1.22.32-2.31.44-3.2-.51-3.21-3.41-1.57-7.62-1.34-11.36.18-3,3.23-3.23,5.9-2.88A20.68,20.68,0,0,0,1215.58,616Zm1-28.72c-1.22,2,.6,3,1.43,4.3a47,47,0,0,1,7.8,21.75c.47,4.81-1.57,6.75-6.39,6.33-2-.17-4-.42-5.93-.53-4-.21-3.33,2.57-3.34,5.1,0,3,1.13,3.71,4,2.91,3.66-1,7.44-1.59,11.17-2.37,3.28-.68,4.8-2.65,4.46-6-1-10.2-3.62-19.87-9.54-28.41C1219.37,589,1218.59,587.39,1216.6,587.26Z" transform="translate(-696.83 -185)"/><path class="cls-1" d="M755.78,286.07c7.11,0,12,5.69,10.9,11.86-.53,3.08-3.07,4.21-5.92,2.38-3.28-2.11-6.74-4-9.28-7.14-1.11-1.35-3.16-2.28-2.43-4.5s3.05-1.57,4.57-2.39A4.22,4.22,0,0,1,755.78,286.07Z" transform="translate(-696.83 -185)"/><path class="cls-1" d="M1233.48,661.07c-3,0-5.57-1.16-8-4.39-3-4.06-.42-4.89,2.33-5.56a12.18,12.18,0,0,1,8.58,1.08c2.3,1.23,4.72,3.42,4.23,6.09C1240.07,661.56,1236.68,661,1233.48,661.07Z" transform="translate(-696.83 -185)"/><path class="cls-2" d="M1056.73,607.16c-.36,7.53.21,14.84-.42,22.17-.27,3.14-1.36,4.11-4.23,3.87a25.31,25.31,0,0,0-4,0c-3,.24-4.13-1-4-4.06.17-6.49,0-13,0-19.48,0-3.33.46-6.94-3.11-8.85-3.76-2-7.36-.94-10.82,1.2-12.57,7.78-25.18,15.49-37.77,23.25-4,2.44-7.93,4.86-11.79,7.44-2.46,1.64-5.48,3.29-4.72,6.91.72,3.43,4,4.35,6.83,5.1,10.91,2.87,21.88,5.54,32.83,8.27,7.09,1.76,14.18,3.53,21.28,5.23,5.48,1.32,7.28.23,7.18-5.3-.11-6,4-4.32,7.18-4.65,3.72-.38,5.66.92,5.53,5-.16,5-.2,10,0,15,.17,3.9-1.19,5.43-5.2,5-13-1.51-26.11-2.76-39.15-4.27-19.31-2.23-38.62-4.49-57.9-7-6.86-.88-7.35-1.79-7.35-8.64,0-8.82,0-17.65,0-26.47,0-8.08.54-9.21,8.24-12.05,14.16-5.22,28.38-10.25,42.6-15.31q26-9.27,52.06-18.44c5.72-2,5.58-1.89,6.22,3.91C1057.06,592.42,1056.34,599.9,1056.73,607.16Zm-90.91,19c6.33-.14,9.93-2.44,12.09-6.84.54-1.11,1.19-2.52.06-3.74s-2.46-.75-3.65-.17a58.28,58.28,0,0,1-11.65,4.19c-1.17.29-2.84.14-2.87,2.09,0,1.56,1.1,2.34,2.2,3.08A7.75,7.75,0,0,0,965.82,626.16Z" transform="translate(-696.83 -185)"/><path class="cls-2" d="M904,210.85c-1.24,16.4-3.16,35.07-6,53.65-.49,3.21-1.83,4-4.68,2.52a67.13,67.13,0,0,0-16.81-6c-2.73-.59-3.37-2.22-3-4.76,2.81-20.3,8.55-39.87,14.8-59.31,1-3.12,3-4.23,6.12-2.8C906,199.37,904.24,195.85,904,210.85Z" transform="translate(-696.83 -185)"/><path class="cls-2" d="M814.24,202.62c-1-3.61,2.06-4.94,5.36-6.14,9.57-3.46,8.95-5.93,12.72,5.87a371.78,371.78,0,0,1,13.17,53.05c.58,3.53-.11,5.3-3.74,6a60.52,60.52,0,0,0-15.86,5.7c-3.32,1.69-4.51.52-4.9-2.73-1.59-13-3.33-26-4.81-39C815.34,218.08,814.92,210.78,814.24,202.62Z" transform="translate(-696.83 -185)"/><path class="cls-2" d="M815.21,659.88c1.33-20.15,3.27-40,6.26-59.65.84-5.52,1.21-5.6,6.34-3.16a53,53,0,0,0,13.52,4.83c4.34.76,5.31,3,4.71,6.91-2.29,15.11-6.25,29.82-10.47,44.46-1.33,4.61-3,9.13-4.44,13.71-.9,2.88-2.64,3.58-5.34,2.43a60.29,60.29,0,0,0-6-2.35C816,665.93,814.33,663.56,815.21,659.88Z" transform="translate(-696.83 -185)"/><path class="cls-2" d="M960.73,248.59c.13-.4-.05.24-.28.86-6.14,16.48-12.78,32.74-21.07,48.27-3,5.56-4,5.61-7.9.71a121.71,121.71,0,0,0-14.41-15.18c-2.28-2-2.61-3.89-1.18-6.51,8.27-15.17,16.82-30.16,26.71-44.35,2.23-3.21,4.12-3.89,6.84-.58,3.27,4,6.8,7.74,10.15,11.66A5,5,0,0,1,960.73,248.59Z" transform="translate(-696.83 -185)"/><path class="cls-2" d="M758.24,248.47a5.73,5.73,0,0,1,1.57-5.32c3.3-3.74,6.69-7.41,9.94-11.2,2.24-2.62,4-2.92,6.22.19,10.25,14.38,18.89,29.73,27.27,45.24,1.21,2.25,1,4.05-1,5.73a114.44,114.44,0,0,0-15.68,16.73c-2.47,3.12-4.44,2.89-6.33-.64-8.57-16-15.45-32.68-21.76-49.63C758.2,248.81,758.13,248,758.24,248.47Z" transform="translate(-696.83 -185)"/><path class="cls-2" d="M702.63,398.73c1-8.72,1.85-15.48,2.56-22.25.38-3.6,2.84-4.29,5.68-4.07a332.09,332.09,0,0,1,37,4.83c4.81.92,3.28,4.85,2.83,7.67-1.35,8.37-2.69,16.72-3,25.21-.07,2.15-.42,4.3-.5,6.45-.16,4.28-2.26,4.87-6,3.72a290.16,290.16,0,0,1-31.95-12.45C704.16,405.55,701.31,402.64,702.63,398.73Z" transform="translate(-696.83 -185)"/><path class="cls-2" d="M773.63,634.06a9.2,9.2,0,0,1-1.67-.88,26.27,26.27,0,0,1-2.15-2.07c-12.43-12.79-12.4-12.78-5.9-29.3a343.48,343.48,0,0,1,16.41-36.2c2.81-5.27,4-5.41,7.65-.89a128.88,128.88,0,0,0,14.72,15.55c2.32,2.09,2.5,3.9,1.09,6.48-8.39,15.28-16.89,30.49-27.12,44.65A6.08,6.08,0,0,1,773.63,634.06Z" transform="translate(-696.83 -185)"/><path class="cls-2" d="M714.88,491c-8.14.24-8.3.26-9.32-6.71-1-6.72-1.53-13.51-2.37-20.26-.38-3.05.77-5,3.47-6.42,11.32-6,23.29-10.32,35.38-14.34,3.71-1.23,5.92,0,6.06,4.49a184.7,184.7,0,0,0,3.75,32.56c.77,3.63-.43,5.74-4.18,6.36C736.37,488.5,725.06,490.21,714.88,491Z" transform="translate(-696.83 -185)"/><path class="cls-2" d="M1006.1,492c-11.73-1-23.23-2.52-34.68-4.48-3.48-.59-4.77-2.5-4.15-6,2-11.27,3.62-22.6,3.76-34.08,0-3.34,1.85-4.39,4.94-3.51a200.9,200.9,0,0,1,37.27,15c2.18,1.12,2.85,3.08,2.56,5.45-1,8.07-1.89,16.14-2.85,24.21C1012.38,493.38,1008.57,491.39,1006.1,492Z" transform="translate(-696.83 -185)"/><path class="cls-2" d="M1007.29,372.31c4.23-1,6.22.93,6.64,5.08q1.17,11.39,2.58,22.76c.34,2.78-1,4.46-3.25,5.57a226.88,226.88,0,0,1-35.89,14.43c-3.45,1-5.46.4-5.6-3.67a238.44,238.44,0,0,0-3.56-31.63c-1.14-6.74-.75-7.29,6-8.49A299,299,0,0,1,1007.29,372.31Z" transform="translate(-696.83 -185)"/><path class="cls-2" d="M998.92,315.87a6.06,6.06,0,0,1-2,4.35c-9.49,10.69-18.52,21.81-29.6,31-4.79,4-6.27,3.7-8.33-2.14a156.7,156.7,0,0,0-9.5-22.42c-1.4-2.59-1.37-4.74,1.12-6.51,11.21-8,21.57-17.2,33.83-23.73,3.9-2.08,6.31-1.87,7.91,2.78C994.29,305,996.8,310.59,998.92,315.87Z" transform="translate(-696.83 -185)"/><path class="cls-2" d="M770.32,324.52c-.27.65-.63,1.75-1.14,2.78a184,184,0,0,0-9.27,22.47c-1.69,5-3.53,5.5-7.5,2.26-11.64-9.51-21.12-21.09-31-32.34a4.86,4.86,0,0,1-.68-5.56c2.18-5.19,4.24-10.44,6.28-15.68,1.33-3.42,3.4-4,6.62-2.32,12.69,6.73,23.63,15.95,35.08,24.45A4.16,4.16,0,0,1,770.32,324.52Z" transform="translate(-696.83 -185)"/><path class="cls-2" d="M721.06,547.44c-.27-1.87.82-3.18,1.91-4.43,9.27-10.64,18.34-21.48,29.14-30.66,4.83-4.11,6.81-3.7,8.8,2.25a174.8,174.8,0,0,0,9.25,21.95c1.39,2.8,1.45,4.9-1.24,6.9-10.51,7.82-20.59,16.24-32.08,22.67-6.7,3.75-7.38,3.5-10.28-3.82q-2.65-6.69-5.28-13.38A6.08,6.08,0,0,1,721.06,547.44Z" transform="translate(-696.83 -185)"/><path class="cls-2" d="M1167.23,616.11c1.06-11.13,2.74-21.57,10.82-29.62,4-4,5.07-3.87,7.46,1,2.76,5.65,5.42,11.35,8.17,17a4.09,4.09,0,0,1-.87,5.32c-2.13,2.13-3.56,2.16-4.55-.84-1.34-4.08-2.47-8.25-4-12.25-1.89-4.88-4.8-5.21-7.82-.9-3.72,5.31-4.86,11.51-5.5,17.82-.07.66,0,1.33-.09,2-.21,1.87.47,5-1.85,4.94C1166.38,620.57,1167.76,617.41,1167.23,616.11Z" transform="translate(-696.83 -185)"/><path class="cls-2" d="M1199.46,670.26a47.26,47.26,0,0,1-5.47-.41c-8.27-1.56-10.82-5.92-8.22-13.84,1.61-4.89,3.19-9.79,4.81-14.67.52-1.57.89-3.44,3.31-2.53,2.07.78,2.07,2.16,1.34,4q-2.65,6.7-5,13.52c-1.86,5.37-.43,8,5.11,9.69,6.61,2.05,12.43.29,17.82-3.62.94-.68,1.84-1.44,2.83-2,.76-.46,1.54-1.77,2.49-.78s0,2.1-.75,3A22.9,22.9,0,0,1,1199.46,670.26Z" transform="translate(-696.83 -185)"/><path class="cls-2" d="M1216.6,587.26c2,.13,2.77,1.75,3.66,3,5.92,8.54,8.52,18.21,9.54,28.41.34,3.39-1.18,5.36-4.46,6-3.73.78-7.51,1.36-11.17,2.37-2.87.8-4,.09-4-2.91,0-2.53-.67-5.31,3.34-5.1,2,.1,4,.36,5.93.53,4.82.42,6.87-1.52,6.39-6.33a47.22,47.22,0,0,0-7.8-21.75C1217.2,590.31,1215.38,589.3,1216.6,587.26Z" transform="translate(-696.83 -185)"/><path class="cls-1" d="M965.82,626.16a7.91,7.91,0,0,1-3.83-1.39c-1.1-.75-2.22-1.52-2.2-3.08,0-2,1.7-1.8,2.87-2.09a58.06,58.06,0,0,0,11.65-4.19c1.19-.58,2.54-1,3.65.17s.49,2.63-.06,3.74C975.75,623.72,972.16,626,965.82,626.16Z" transform="translate(-696.83 -185)"/></svg>